<svg width="162" height="63" viewBox="0 0 162 63" fill="none" xmlns="http://www.w3.org/2000/svg">
<rect x="0.5" y="0.5" width="161" height="62" rx="7.5" fill="white"/>
<path d="M23.2 40.288C22.048 40.288 21.032 40.072 20.152 39.64C19.288 39.208 18.608 38.616 18.112 37.864C17.616 37.112 17.368 36.248 17.368 35.272C17.368 34.232 17.64 33.36 18.184 32.656C18.744 31.936 19.368 31.44 20.056 31.168V31.024C19.4 30.688 18.864 30.216 18.448 29.608C18.032 29 17.824 28.264 17.824 27.4C17.824 26.584 18.04 25.84 18.472 25.168C18.904 24.48 19.52 23.936 20.32 23.536C21.12 23.12 22.08 22.912 23.2 22.912C24.304 22.912 25.256 23.12 26.056 23.536C26.856 23.936 27.472 24.48 27.904 25.168C28.352 25.84 28.576 26.584 28.576 27.4C28.576 28.264 28.368 29 27.952 29.608C27.536 30.216 27 30.688 26.344 31.024V31.168C27.048 31.44 27.672 31.936 28.216 32.656C28.76 33.36 29.032 34.232 29.032 35.272C29.032 36.248 28.784 37.112 28.288 37.864C27.808 38.616 27.128 39.208 26.248 39.64C25.368 40.072 24.352 40.288 23.2 40.288ZM23.2 30.136C24.096 30.136 24.8 29.904 25.312 29.44C25.84 28.976 26.104 28.376 26.104 27.64C26.104 26.904 25.84 26.304 25.312 25.84C24.8 25.376 24.096 25.144 23.2 25.144C22.304 25.144 21.592 25.376 21.064 25.84C20.552 26.304 20.296 26.904 20.296 27.64C20.296 28.376 20.552 28.976 21.064 29.44C21.592 29.904 22.304 30.136 23.2 30.136ZM23.2 37.984C24.192 37.984 24.992 37.736 25.6 37.24C26.208 36.728 26.512 36.016 26.512 35.104C26.512 34.192 26.208 33.488 25.6 32.992C24.992 32.48 24.192 32.224 23.2 32.224C22.208 32.224 21.408 32.48 20.8 32.992C20.192 33.488 19.888 34.192 19.888 35.104C19.888 36.016 20.192 36.728 20.8 37.24C21.408 37.736 22.208 37.984 23.2 37.984ZM37.9266 40.288C36.7426 40.288 35.7426 40.072 34.9266 39.64C34.1106 39.192 33.4466 38.592 32.9346 37.84C32.4386 37.088 32.0706 36.232 31.8306 35.272C31.6066 34.296 31.4946 33.272 31.4946 32.2C31.4946 30.344 31.7506 28.72 32.2626 27.328C32.7906 25.936 33.5426 24.856 34.5186 24.088C35.4946 23.304 36.6706 22.912 38.0466 22.912C39.1826 22.912 40.1346 23.12 40.9026 23.536C41.6866 23.936 42.2946 24.496 42.7266 25.216C43.1746 25.92 43.4466 26.728 43.5426 27.64H41.1666C41.0066 26.888 40.6466 26.296 40.0866 25.864C39.5266 25.432 38.8386 25.216 38.0226 25.216C36.9506 25.216 36.0226 25.728 35.2386 26.752C34.4546 27.76 34.0146 29.344 33.9186 31.504H34.0626C34.3986 30.896 34.9266 30.36 35.6466 29.896C36.3826 29.432 37.2546 29.2 38.2626 29.2C39.2386 29.2 40.1266 29.432 40.9266 29.896C41.7266 30.344 42.3586 30.976 42.8226 31.792C43.3026 32.608 43.5426 33.552 43.5426 34.624C43.5426 35.632 43.3106 36.568 42.8466 37.432C42.3986 38.296 41.7506 38.992 40.9026 39.52C40.0706 40.032 39.0786 40.288 37.9266 40.288ZM37.7586 37.984C38.7346 37.984 39.5186 37.68 40.1106 37.072C40.7186 36.464 41.0226 35.688 41.0226 34.744C41.0226 33.8 40.7186 33.024 40.1106 32.416C39.5186 31.792 38.7346 31.48 37.7586 31.48C36.7826 31.48 35.9826 31.784 35.3586 32.392C34.7506 33 34.4466 33.776 34.4466 34.72C34.4466 35.648 34.7506 36.424 35.3586 37.048C35.9826 37.672 36.7826 37.984 37.7586 37.984ZM48.6213 40L54.9813 25.504H46.1973V23.2H57.5973V25.168L51.2853 40H48.6213ZM60.8519 40V37.984C62.4999 36.672 63.9399 35.464 65.1719 34.36C66.4199 33.256 67.3959 32.192 68.0999 31.168C68.8039 30.144 69.1559 29.104 69.1559 28.048C69.1559 27.168 68.9079 26.48 68.4119 25.984C67.9159 25.472 67.2439 25.216 66.3959 25.216C65.4199 25.216 64.6679 25.528 64.1399 26.152C63.6119 26.76 63.3479 27.488 63.3479 28.336H60.8759C60.8919 27.152 61.1399 26.16 61.6199 25.36C62.0999 24.56 62.7479 23.952 63.5639 23.536C64.3959 23.12 65.3399 22.912 66.3959 22.912C68.1079 22.912 69.4279 23.376 70.3559 24.304C71.2839 25.216 71.7479 26.44 71.7479 27.976C71.7479 28.952 71.5319 29.896 71.0999 30.808C70.6839 31.704 70.1319 32.56 69.4439 33.376C68.7559 34.192 67.9879 34.968 67.1399 35.704C66.3079 36.44 65.4679 37.144 64.6199 37.816H72.2039V40H60.8519ZM80.7625 40.144C80.1705 40.144 79.6665 39.952 79.2505 39.568C78.8345 39.168 78.6265 38.688 78.6265 38.128C78.6265 37.568 78.8345 37.096 79.2505 36.712C79.6665 36.328 80.1705 36.136 80.7625 36.136C81.3705 36.136 81.8745 36.328 82.2745 36.712C82.6905 37.096 82.8985 37.568 82.8985 38.128C82.8985 38.688 82.6905 39.168 82.2745 39.568C81.8745 39.952 81.3705 40.144 80.7625 40.144ZM109.88 40.288C108.696 40.288 107.696 40.072 106.88 39.64C106.064 39.192 105.4 38.592 104.888 37.84C104.392 37.088 104.024 36.232 103.784 35.272C103.56 34.296 103.448 33.272 103.448 32.2C103.448 30.344 103.704 28.72 104.216 27.328C104.744 25.936 105.496 24.856 106.472 24.088C107.448 23.304 108.624 22.912 110 22.912C111.136 22.912 112.088 23.12 112.856 23.536C113.64 23.936 114.248 24.496 114.68 25.216C115.128 25.92 115.4 26.728 115.496 27.64H113.12C112.96 26.888 112.6 26.296 112.04 25.864C111.48 25.432 110.792 25.216 109.976 25.216C108.904 25.216 107.976 25.728 107.192 26.752C106.408 27.76 105.968 29.344 105.872 31.504H106.016C106.352 30.896 106.88 30.36 107.6 29.896C108.336 29.432 109.208 29.2 110.216 29.2C111.192 29.2 112.08 29.432 112.88 29.896C113.68 30.344 114.312 30.976 114.776 31.792C115.256 32.608 115.496 33.552 115.496 34.624C115.496 35.632 115.264 36.568 114.8 37.432C114.352 38.296 113.704 38.992 112.856 39.52C112.024 40.032 111.032 40.288 109.88 40.288ZM109.712 37.984C110.688 37.984 111.472 37.68 112.064 37.072C112.672 36.464 112.976 35.688 112.976 34.744C112.976 33.8 112.672 33.024 112.064 32.416C111.472 31.792 110.688 31.48 109.712 31.48C108.736 31.48 107.936 31.784 107.312 32.392C106.704 33 106.4 33.776 106.4 34.72C106.4 35.648 106.704 36.424 107.312 37.048C107.936 37.672 108.736 37.984 109.712 37.984ZM123.622 40.288C122.566 40.288 121.638 40.08 120.838 39.664C120.038 39.248 119.398 38.688 118.918 37.984C118.438 37.264 118.15 36.456 118.054 35.56H120.502C120.662 36.312 121.014 36.904 121.558 37.336C122.102 37.768 122.79 37.984 123.622 37.984C124.79 37.984 125.734 37.48 126.454 36.472C127.174 35.448 127.59 33.856 127.702 31.696H127.534C127.134 32.368 126.622 32.92 125.998 33.352C125.374 33.784 124.486 34 123.334 34C122.374 34 121.494 33.776 120.694 33.328C119.894 32.864 119.254 32.224 118.774 31.408C118.294 30.592 118.054 29.648 118.054 28.576C118.054 27.552 118.286 26.616 118.75 25.768C119.214 24.904 119.862 24.216 120.694 23.704C121.542 23.176 122.542 22.912 123.694 22.912C125.166 22.912 126.374 23.248 127.318 23.92C128.262 24.576 128.958 25.512 129.406 26.728C129.87 27.928 130.102 29.352 130.102 31C130.102 32.856 129.846 34.48 129.334 35.872C128.838 37.264 128.102 38.352 127.126 39.136C126.166 39.904 124.998 40.288 123.622 40.288ZM123.862 31.72C124.854 31.72 125.646 31.416 126.238 30.808C126.846 30.184 127.15 29.408 127.15 28.48C127.15 27.536 126.846 26.76 126.238 26.152C125.646 25.528 124.854 25.216 123.862 25.216C122.87 25.216 122.07 25.52 121.462 26.128C120.87 26.736 120.574 27.512 120.574 28.456C120.574 29.4 120.87 30.184 121.462 30.808C122.07 31.416 122.87 31.72 123.862 31.72ZM138.325 40.288C137.173 40.288 136.157 40.072 135.277 39.64C134.413 39.208 133.733 38.616 133.237 37.864C132.741 37.112 132.493 36.248 132.493 35.272C132.493 34.232 132.765 33.36 133.309 32.656C133.869 31.936 134.493 31.44 135.181 31.168V31.024C134.525 30.688 133.989 30.216 133.573 29.608C133.157 29 132.949 28.264 132.949 27.4C132.949 26.584 133.165 25.84 133.597 25.168C134.029 24.48 134.645 23.936 135.445 23.536C136.245 23.12 137.205 22.912 138.325 22.912C139.429 22.912 140.381 23.12 141.181 23.536C141.981 23.936 142.597 24.48 143.029 25.168C143.477 25.84 143.701 26.584 143.701 27.4C143.701 28.264 143.493 29 143.077 29.608C142.661 30.216 142.125 30.688 141.469 31.024V31.168C142.173 31.44 142.797 31.936 143.341 32.656C143.885 33.36 144.157 34.232 144.157 35.272C144.157 36.248 143.909 37.112 143.413 37.864C142.933 38.616 142.253 39.208 141.373 39.64C140.493 40.072 139.477 40.288 138.325 40.288ZM138.325 30.136C139.221 30.136 139.925 29.904 140.437 29.44C140.965 28.976 141.229 28.376 141.229 27.64C141.229 26.904 140.965 26.304 140.437 25.84C139.925 25.376 139.221 25.144 138.325 25.144C137.429 25.144 136.717 25.376 136.189 25.84C135.677 26.304 135.421 26.904 135.421 27.64C135.421 28.376 135.677 28.976 136.189 29.44C136.717 29.904 137.429 30.136 138.325 30.136ZM138.325 37.984C139.317 37.984 140.117 37.736 140.725 37.24C141.333 36.728 141.637 36.016 141.637 35.104C141.637 34.192 141.333 33.488 140.725 32.992C140.117 32.48 139.317 32.224 138.325 32.224C137.333 32.224 136.533 32.48 135.925 32.992C135.317 33.488 135.013 34.192 135.013 35.104C135.013 36.016 135.317 36.728 135.925 37.24C136.533 37.736 137.333 37.984 138.325 37.984Z" fill="black"/>
<path d="M95.2731 40.288C94.1691 40.288 93.1691 40.08 92.2731 39.664C91.3771 39.248 90.6651 38.64 90.1371 37.84C89.6091 37.024 89.3211 36.04 89.2731 34.888H91.8171C91.8651 35.768 92.1851 36.496 92.7771 37.072C93.3851 37.648 94.2171 37.936 95.2731 37.936C96.3131 37.936 97.1291 37.68 97.7211 37.168C98.3131 36.656 98.6091 35.952 98.6091 35.056C98.6091 34.064 98.2491 33.336 97.5291 32.872C96.8091 32.408 95.9291 32.176 94.8891 32.176H93.4011V29.92H94.6731C95.6171 29.92 96.3931 29.728 97.0011 29.344C97.6091 28.96 97.9131 28.36 97.9131 27.544C97.9131 26.84 97.6811 26.288 97.2171 25.888C96.7531 25.472 96.0971 25.264 95.2491 25.264C94.3851 25.264 93.6971 25.496 93.1851 25.96C92.6731 26.424 92.3851 27.016 92.3211 27.736H89.8011C89.8491 26.776 90.1051 25.936 90.5691 25.216C91.0331 24.496 91.6651 23.936 92.4651 23.536C93.2651 23.12 94.1931 22.912 95.2491 22.912C96.4011 22.912 97.3611 23.112 98.1291 23.512C98.8971 23.896 99.4731 24.416 99.8571 25.072C100.241 25.728 100.433 26.464 100.433 27.28C100.433 28.112 100.185 28.832 99.6891 29.44C99.2091 30.032 98.6251 30.464 97.9371 30.736V30.88C98.8651 31.136 99.6251 31.616 100.217 32.32C100.825 33.008 101.129 33.936 101.129 35.104C101.129 36.048 100.897 36.92 100.433 37.72C99.9851 38.504 99.3211 39.128 98.4411 39.592C97.5771 40.056 96.5211 40.288 95.2731 40.288Z" fill="#FF0000"/>
<rect x="0.5" y="0.5" width="161" height="62" rx="7.5" stroke="black"/>
</svg>
