<svg width="300" height="200" viewBox="0 0 300 200" fill="none" xmlns="http://www.w3.org/2000/svg">
<rect x="0.5" y="0.5" width="299" height="199" fill="white"/>
<path d="M120.5 179.5H100.5H80.5239H60.5H40.5H20.5V49.5L40.5 67.6569L60.5 82.6635L80.5239 95L100.5 104.922L120.5 112.648L140.5 118.253L160.5 121.744L180.5 123.04L200.5 121.951L220.5 118.124L240.5 110.914L260.5 99.0538L280.5 79.5V179.5H260.5H240.5H220.5H200.5H180.5H160.5H140.5H120.5Z" fill="#00FF00" fill-opacity="0.2"/>
<path d="M40.5 67.6569V82.6635V179.5M40.5 67.6569L20.5 49.5V179.5H40.5M40.5 67.6569L60.5 82.6635M40.5 179.5H60.5M60.5 82.6635V95V179.5M60.5 82.6635L80.5239 95M60.5 179.5H80.5239M80.5239 95V104.922V179.5M80.5239 95L100.5 104.922M80.5239 179.5H100.5M100.5 104.922V112.648V179.5M100.5 104.922L120.5 112.648M100.5 179.5H120.5M120.5 179.5V118.253V112.648M120.5 179.5H140.5M120.5 112.648L140.5 118.253M140.5 118.253V121.744V179.5M140.5 118.253L160.5 121.744M140.5 179.5H160.5M160.5 179.5V123.04V121.744M160.5 179.5H180.5M160.5 121.744L180.5 123.04M180.5 123.04V179.5M180.5 123.04L200.5 121.951M180.5 179.5H200.5M200.5 179.5V121.951M200.5 179.5H220.5M200.5 121.951L220.5 118.124M220.5 179.5V118.124M220.5 179.5H240.5M220.5 118.124L240.5 110.914M240.5 179.5V110.914M240.5 179.5H260.5M240.5 110.914L260.5 99.0538M260.5 179.5V99.0538M260.5 179.5H280.5V79.5L260.5 99.0538" stroke="#00FF00"/>
<path d="M16.73 26V19H21.14V19.98H17.81V21.99H20.86V22.97H17.81V25.02H21.19V26H16.73ZM23.2359 26V21.94H21.8559V21.07H23.2359V19.99C23.2359 19.69 23.3259 19.45 23.5059 19.27C23.6859 19.09 23.9259 19 24.2259 19H25.4959V19.87H24.5559C24.3626 19.87 24.2659 19.97 24.2659 20.17V21.07H25.3759V21.94H24.2659V26H23.2359ZM26.4759 26V21.94H25.3759V21.07H26.4759V19.99C26.4759 19.69 26.5626 19.45 26.7359 19.27C26.9159 19.09 27.1593 19 27.4659 19H28.7359V19.87H27.7959C27.6026 19.87 27.5059 19.97 27.5059 20.17V21.07H28.9259V21.94H27.5059V26H26.4759ZM32.0278 26.14C31.5278 26.14 31.0911 26.0367 30.7178 25.83C30.3445 25.6167 30.0511 25.32 29.8378 24.94C29.6311 24.5533 29.5278 24.1067 29.5278 23.6V23.48C29.5278 22.9667 29.6311 22.52 29.8378 22.14C30.0445 21.7533 30.3311 21.4567 30.6978 21.25C31.0711 21.0367 31.5011 20.93 31.9878 20.93C32.4611 20.93 32.8745 21.0367 33.2278 21.25C33.5878 21.4567 33.8678 21.7467 34.0678 22.12C34.2678 22.4933 34.3678 22.93 34.3678 23.43V23.82H30.5778C30.5911 24.2533 30.7345 24.6 31.0078 24.86C31.2878 25.1133 31.6345 25.24 32.0478 25.24C32.4345 25.24 32.7245 25.1533 32.9178 24.98C33.1178 24.8067 33.2711 24.6067 33.3778 24.38L34.2278 24.82C34.1345 25.0067 33.9978 25.2033 33.8178 25.41C33.6445 25.6167 33.4145 25.79 33.1278 25.93C32.8411 26.07 32.4745 26.14 32.0278 26.14ZM30.5878 23.03H33.3178C33.2911 22.6567 33.1578 22.3667 32.9178 22.16C32.6778 21.9467 32.3645 21.84 31.9778 21.84C31.5911 21.84 31.2745 21.9467 31.0278 22.16C30.7878 22.3667 30.6411 22.6567 30.5878 23.03ZM37.8977 26.14C37.4243 26.14 36.9943 26.04 36.6077 25.84C36.2277 25.64 35.9243 25.35 35.6977 24.97C35.4777 24.59 35.3677 24.1333 35.3677 23.6V23.47C35.3677 22.9367 35.4777 22.4833 35.6977 22.11C35.9243 21.73 36.2277 21.44 36.6077 21.24C36.9943 21.0333 37.4243 20.93 37.8977 20.93C38.371 20.93 38.7743 21.0167 39.1077 21.19C39.441 21.3633 39.7077 21.5933 39.9077 21.88C40.1143 22.1667 40.2477 22.4833 40.3077 22.83L39.3077 23.04C39.2743 22.82 39.2043 22.62 39.0977 22.44C38.991 22.26 38.841 22.1167 38.6477 22.01C38.4543 21.9033 38.211 21.85 37.9177 21.85C37.631 21.85 37.371 21.9167 37.1377 22.05C36.911 22.1767 36.731 22.3633 36.5977 22.61C36.4643 22.85 36.3977 23.1433 36.3977 23.49V23.58C36.3977 23.9267 36.4643 24.2233 36.5977 24.47C36.731 24.7167 36.911 24.9033 37.1377 25.03C37.371 25.1567 37.631 25.22 37.9177 25.22C38.351 25.22 38.681 25.11 38.9077 24.89C39.1343 24.6633 39.2777 24.3767 39.3377 24.03L40.3377 24.26C40.2577 24.6 40.1143 24.9133 39.9077 25.2C39.7077 25.4867 39.441 25.7167 39.1077 25.89C38.7743 26.0567 38.371 26.14 37.8977 26.14ZM43.1901 26C42.8901 26 42.6501 25.91 42.4701 25.73C42.2967 25.55 42.2101 25.31 42.2101 25.01V21.94H40.8501V21.07H42.2101V19.44H43.2401V21.07H44.7101V21.94H43.2401V24.83C43.2401 25.03 43.3334 25.13 43.5201 25.13H44.5501V26H43.1901ZM50.779 26.14C50.2857 26.14 49.8457 26.04 49.459 25.84C49.079 25.6333 48.779 25.34 48.559 24.96C48.339 24.58 48.229 24.13 48.229 23.61V23.46C48.229 22.94 48.339 22.4933 48.559 22.12C48.779 21.74 49.079 21.4467 49.459 21.24C49.8457 21.0333 50.2857 20.93 50.779 20.93C51.2723 20.93 51.7123 21.0333 52.099 21.24C52.4857 21.4467 52.789 21.74 53.009 22.12C53.229 22.4933 53.339 22.94 53.339 23.46V23.61C53.339 24.13 53.229 24.58 53.009 24.96C52.789 25.34 52.4857 25.6333 52.099 25.84C51.7123 26.04 51.2723 26.14 50.779 26.14ZM50.779 25.22C51.2323 25.22 51.599 25.0767 51.879 24.79C52.1657 24.4967 52.309 24.0933 52.309 23.58V23.49C52.309 22.9767 52.169 22.5767 51.889 22.29C51.609 21.9967 51.239 21.85 50.779 21.85C50.3323 21.85 49.9657 21.9967 49.679 22.29C49.399 22.5767 49.259 22.9767 49.259 23.49V23.58C49.259 24.0933 49.399 24.4967 49.679 24.79C49.9657 25.0767 50.3323 25.22 50.779 25.22ZM55.3258 26V21.94H53.9458V21.07H55.3258V19.99C55.3258 19.69 55.4158 19.45 55.5958 19.27C55.7758 19.09 56.0158 19 56.3158 19H57.5858V19.87H56.6458C56.4524 19.87 56.3558 19.97 56.3558 20.17V21.07H57.7758V21.94H56.3558V26H55.3258ZM61.3791 28V21.07H62.3891V21.78H62.5491C62.6758 21.56 62.8658 21.3633 63.1191 21.19C63.3791 21.0167 63.7491 20.93 64.2291 20.93C64.6425 20.93 65.0191 21.03 65.3591 21.23C65.7058 21.43 65.9825 21.72 66.1891 22.1C66.4025 22.4733 66.5091 22.9267 66.5091 23.46V23.61C66.5091 24.1433 66.4058 24.6 66.1991 24.98C65.9925 25.3533 65.7158 25.64 65.3691 25.84C65.0225 26.04 64.6425 26.14 64.2291 26.14C63.9091 26.14 63.6391 26.1 63.4191 26.02C63.1991 25.94 63.0225 25.84 62.8891 25.72C62.7558 25.5933 62.6491 25.4633 62.5691 25.33H62.4091V28H61.3791ZM63.9291 25.24C64.3825 25.24 64.7525 25.0967 65.0391 24.81C65.3258 24.5233 65.4691 24.1133 65.4691 23.58V23.49C65.4691 22.9633 65.3225 22.5567 65.0291 22.27C64.7425 21.9833 64.3758 21.84 63.9291 21.84C63.4891 21.84 63.1225 21.9833 62.8291 22.27C62.5425 22.5567 62.3991 22.9633 62.3991 23.49V23.58C62.3991 24.1133 62.5425 24.5233 62.8291 24.81C63.1225 25.0967 63.4891 25.24 63.9291 25.24ZM69.3154 26.14C68.9621 26.14 68.6454 26.08 68.3654 25.96C68.0921 25.84 67.8721 25.6633 67.7054 25.43C67.5454 25.1967 67.4654 24.9133 67.4654 24.58C67.4654 24.24 67.5454 23.96 67.7054 23.74C67.8721 23.5133 68.0954 23.3433 68.3754 23.23C68.6621 23.1167 68.9854 23.06 69.3454 23.06H70.8454V22.74C70.8454 22.4533 70.7587 22.2233 70.5854 22.05C70.4121 21.8767 70.1454 21.79 69.7854 21.79C69.4321 21.79 69.1621 21.8733 68.9754 22.04C68.7887 22.2067 68.6654 22.4233 68.6054 22.69L67.6454 22.38C67.7254 22.1133 67.8521 21.8733 68.0254 21.66C68.2054 21.44 68.4421 21.2633 68.7354 21.13C69.0287 20.9967 69.3821 20.93 69.7954 20.93C70.4354 20.93 70.9387 21.0933 71.3054 21.42C71.6721 21.7467 71.8554 22.21 71.8554 22.81V24.84C71.8554 25.04 71.9487 25.14 72.1354 25.14H72.5554V26H71.7854C71.5521 26 71.3621 25.94 71.2154 25.82C71.0687 25.7 70.9954 25.5367 70.9954 25.33V25.3H70.8454C70.7921 25.4 70.7121 25.5167 70.6054 25.65C70.4987 25.7833 70.3421 25.9 70.1354 26C69.9287 26.0933 69.6554 26.14 69.3154 26.14ZM69.4654 25.29C69.8787 25.29 70.2121 25.1733 70.4654 24.94C70.7187 24.7 70.8454 24.3733 70.8454 23.96V23.86H69.4054C69.1321 23.86 68.9121 23.92 68.7454 24.04C68.5787 24.1533 68.4954 24.3233 68.4954 24.55C68.4954 24.7767 68.5821 24.9567 68.7554 25.09C68.9287 25.2233 69.1654 25.29 69.4654 25.29ZM73.5569 26V21.07H74.5669V21.65H74.7269C74.8069 21.4433 74.9335 21.2933 75.1069 21.2C75.2869 21.1 75.5069 21.05 75.7669 21.05H76.3569V21.98H75.7269C75.3935 21.98 75.1202 22.0733 74.9069 22.26C74.6935 22.44 74.5869 22.72 74.5869 23.1V26H73.5569ZM78.8173 26.14C78.464 26.14 78.1473 26.08 77.8673 25.96C77.594 25.84 77.374 25.6633 77.2073 25.43C77.0473 25.1967 76.9673 24.9133 76.9673 24.58C76.9673 24.24 77.0473 23.96 77.2073 23.74C77.374 23.5133 77.5973 23.3433 77.8773 23.23C78.164 23.1167 78.4873 23.06 78.8473 23.06H80.3473V22.74C80.3473 22.4533 80.2607 22.2233 80.0873 22.05C79.914 21.8767 79.6473 21.79 79.2873 21.79C78.934 21.79 78.664 21.8733 78.4773 22.04C78.2907 22.2067 78.1673 22.4233 78.1073 22.69L77.1473 22.38C77.2273 22.1133 77.354 21.8733 77.5273 21.66C77.7073 21.44 77.944 21.2633 78.2373 21.13C78.5307 20.9967 78.884 20.93 79.2973 20.93C79.9373 20.93 80.4407 21.0933 80.8073 21.42C81.174 21.7467 81.3573 22.21 81.3573 22.81V24.84C81.3573 25.04 81.4507 25.14 81.6373 25.14H82.0573V26H81.2873C81.054 26 80.864 25.94 80.7173 25.82C80.5707 25.7 80.4973 25.5367 80.4973 25.33V25.3H80.3473C80.294 25.4 80.214 25.5167 80.1073 25.65C80.0007 25.7833 79.844 25.9 79.6373 26C79.4307 26.0933 79.1573 26.14 78.8173 26.14ZM78.9673 25.29C79.3807 25.29 79.714 25.1733 79.9673 24.94C80.2207 24.7 80.3473 24.3733 80.3473 23.96V23.86H78.9073C78.634 23.86 78.414 23.92 78.2473 24.04C78.0807 24.1533 77.9973 24.3233 77.9973 24.55C77.9973 24.7767 78.084 24.9567 78.2573 25.09C78.4307 25.2233 78.6673 25.29 78.9673 25.29ZM83.0588 26V21.07H84.0688V21.65H84.2288C84.3222 21.4767 84.4722 21.3233 84.6788 21.19C84.8855 21.0567 85.1655 20.99 85.5188 20.99C85.8855 20.99 86.1788 21.0667 86.3988 21.22C86.6255 21.3667 86.7955 21.5567 86.9088 21.79H87.0688C87.1822 21.5633 87.3455 21.3733 87.5588 21.22C87.7788 21.0667 88.0888 20.99 88.4888 20.99C88.8088 20.99 89.0922 21.0567 89.3388 21.19C89.5855 21.3167 89.7822 21.51 89.9288 21.77C90.0755 22.0233 90.1488 22.34 90.1488 22.72V26H89.1188V22.8C89.1188 22.5 89.0355 22.27 88.8688 22.11C88.7088 21.9433 88.4788 21.86 88.1788 21.86C87.8588 21.86 87.6022 21.9633 87.4088 22.17C87.2155 22.3767 87.1188 22.6733 87.1188 23.06V26H86.0888V22.8C86.0888 22.5 86.0055 22.27 85.8388 22.11C85.6788 21.9433 85.4488 21.86 85.1488 21.86C84.8288 21.86 84.5722 21.9633 84.3788 22.17C84.1855 22.3767 84.0888 22.6733 84.0888 23.06V26H83.0588ZM93.893 26.14C93.393 26.14 92.9564 26.0367 92.583 25.83C92.2097 25.6167 91.9164 25.32 91.703 24.94C91.4964 24.5533 91.393 24.1067 91.393 23.6V23.48C91.393 22.9667 91.4964 22.52 91.703 22.14C91.9097 21.7533 92.1964 21.4567 92.563 21.25C92.9364 21.0367 93.3664 20.93 93.853 20.93C94.3264 20.93 94.7397 21.0367 95.093 21.25C95.453 21.4567 95.733 21.7467 95.933 22.12C96.133 22.4933 96.233 22.93 96.233 23.43V23.82H92.443C92.4564 24.2533 92.5997 24.6 92.873 24.86C93.153 25.1133 93.4997 25.24 93.913 25.24C94.2997 25.24 94.5897 25.1533 94.783 24.98C94.983 24.8067 95.1364 24.6067 95.243 24.38L96.093 24.82C95.9997 25.0067 95.863 25.2033 95.683 25.41C95.5097 25.6167 95.2797 25.79 94.993 25.93C94.7064 26.07 94.3397 26.14 93.893 26.14ZM92.453 23.03H95.183C95.1564 22.6567 95.023 22.3667 94.783 22.16C94.543 21.9467 94.2297 21.84 93.843 21.84C93.4564 21.84 93.1397 21.9467 92.893 22.16C92.653 22.3667 92.5064 22.6567 92.453 23.03ZM99.1373 26C98.8373 26 98.5973 25.91 98.4173 25.73C98.244 25.55 98.1573 25.31 98.1573 25.01V21.94H96.7973V21.07H98.1573V19.44H99.1873V21.07H100.657V21.94H99.1873V24.83C99.1873 25.03 99.2807 25.13 99.4673 25.13H100.497V26H99.1373ZM101.867 26V21.07H102.877V21.65H103.037C103.117 21.4433 103.244 21.2933 103.417 21.2C103.597 21.1 103.817 21.05 104.077 21.05H104.667V21.98H104.037C103.704 21.98 103.431 22.0733 103.217 22.26C103.004 22.44 102.897 22.72 102.897 23.1V26H101.867ZM105.735 26V21.07H106.765V26H105.735ZM106.255 20.4C106.055 20.4 105.885 20.3367 105.745 20.21C105.611 20.0767 105.545 19.9067 105.545 19.7C105.545 19.4933 105.611 19.3267 105.745 19.2C105.885 19.0667 106.055 19 106.255 19C106.461 19 106.631 19.0667 106.765 19.2C106.898 19.3267 106.965 19.4933 106.965 19.7C106.965 19.9067 106.898 20.0767 106.765 20.21C106.631 20.3367 106.461 20.4 106.255 20.4ZM110.583 26.14C110.11 26.14 109.68 26.04 109.293 25.84C108.913 25.64 108.61 25.35 108.383 24.97C108.163 24.59 108.053 24.1333 108.053 23.6V23.47C108.053 22.9367 108.163 22.4833 108.383 22.11C108.61 21.73 108.913 21.44 109.293 21.24C109.68 21.0333 110.11 20.93 110.583 20.93C111.057 20.93 111.46 21.0167 111.793 21.19C112.127 21.3633 112.393 21.5933 112.593 21.88C112.8 22.1667 112.933 22.4833 112.993 22.83L111.993 23.04C111.96 22.82 111.89 22.62 111.783 22.44C111.677 22.26 111.527 22.1167 111.333 22.01C111.14 21.9033 110.897 21.85 110.603 21.85C110.317 21.85 110.057 21.9167 109.823 22.05C109.597 22.1767 109.417 22.3633 109.283 22.61C109.15 22.85 109.083 23.1433 109.083 23.49V23.58C109.083 23.9267 109.15 24.2233 109.283 24.47C109.417 24.7167 109.597 24.9033 109.823 25.03C110.057 25.1567 110.317 25.22 110.603 25.22C111.037 25.22 111.367 25.11 111.593 24.89C111.82 24.6633 111.963 24.3767 112.023 24.03L113.023 24.26C112.943 24.6 112.8 24.9133 112.593 25.2C112.393 25.4867 112.127 25.7167 111.793 25.89C111.46 26.0567 111.057 26.14 110.583 26.14ZM118.78 26.14C118.153 26.14 117.633 26 117.22 25.72C116.807 25.44 116.553 25.0167 116.46 24.45L117.42 24.22C117.473 24.4933 117.563 24.71 117.69 24.87C117.817 25.03 117.973 25.1433 118.16 25.21C118.353 25.2767 118.56 25.31 118.78 25.31C119.107 25.31 119.357 25.2467 119.53 25.12C119.71 24.9933 119.8 24.83 119.8 24.63C119.8 24.43 119.717 24.2833 119.55 24.19C119.383 24.0967 119.137 24.02 118.81 23.96L118.47 23.9C118.137 23.84 117.833 23.7533 117.56 23.64C117.287 23.5267 117.07 23.37 116.91 23.17C116.75 22.97 116.67 22.7133 116.67 22.4C116.67 21.9333 116.843 21.5733 117.19 21.32C117.537 21.06 117.997 20.93 118.57 20.93C119.123 20.93 119.577 21.0567 119.93 21.31C120.29 21.5567 120.523 21.8933 120.63 22.32L119.67 22.59C119.61 22.29 119.483 22.08 119.29 21.96C119.097 21.8333 118.857 21.77 118.57 21.77C118.29 21.77 118.07 21.8233 117.91 21.93C117.75 22.03 117.67 22.1733 117.67 22.36C117.67 22.56 117.747 22.7067 117.9 22.8C118.06 22.8933 118.273 22.9633 118.54 23.01L118.89 23.07C119.243 23.13 119.567 23.2133 119.86 23.32C120.153 23.4267 120.383 23.58 120.55 23.78C120.723 23.98 120.81 24.2467 120.81 24.58C120.81 25.0733 120.627 25.4567 120.26 25.73C119.893 26.0033 119.4 26.14 118.78 26.14ZM124.274 26.14C123.774 26.14 123.337 26.0367 122.964 25.83C122.591 25.6167 122.297 25.32 122.084 24.94C121.877 24.5533 121.774 24.1067 121.774 23.6V23.48C121.774 22.9667 121.877 22.52 122.084 22.14C122.291 21.7533 122.577 21.4567 122.944 21.25C123.317 21.0367 123.747 20.93 124.234 20.93C124.707 20.93 125.121 21.0367 125.474 21.25C125.834 21.4567 126.114 21.7467 126.314 22.12C126.514 22.4933 126.614 22.93 126.614 23.43V23.82H122.824C122.837 24.2533 122.981 24.6 123.254 24.86C123.534 25.1133 123.881 25.24 124.294 25.24C124.681 25.24 124.971 25.1533 125.164 24.98C125.364 24.8067 125.517 24.6067 125.624 24.38L126.474 24.82C126.381 25.0067 126.244 25.2033 126.064 25.41C125.891 25.6167 125.661 25.79 125.374 25.93C125.087 26.07 124.721 26.14 124.274 26.14ZM122.834 23.03H125.564C125.537 22.6567 125.404 22.3667 125.164 22.16C124.924 21.9467 124.611 21.84 124.224 21.84C123.837 21.84 123.521 21.9467 123.274 22.16C123.034 22.3667 122.887 22.6567 122.834 23.03ZM127.854 26V21.07H128.864V21.65H129.024C129.117 21.4767 129.267 21.3233 129.474 21.19C129.68 21.0567 129.96 20.99 130.314 20.99C130.68 20.99 130.974 21.0667 131.194 21.22C131.42 21.3667 131.59 21.5567 131.704 21.79H131.864C131.977 21.5633 132.14 21.3733 132.354 21.22C132.574 21.0667 132.884 20.99 133.284 20.99C133.604 20.99 133.887 21.0567 134.134 21.19C134.38 21.3167 134.577 21.51 134.724 21.77C134.87 22.0233 134.944 22.34 134.944 22.72V26H133.914V22.8C133.914 22.5 133.83 22.27 133.664 22.11C133.504 21.9433 133.274 21.86 132.974 21.86C132.654 21.86 132.397 21.9633 132.204 22.17C132.01 22.3767 131.914 22.6733 131.914 23.06V26H130.884V22.8C130.884 22.5 130.8 22.27 130.634 22.11C130.474 21.9433 130.244 21.86 129.944 21.86C129.624 21.86 129.367 21.9633 129.174 22.17C128.98 22.3767 128.884 22.6733 128.884 23.06V26H127.854ZM136.428 26V21.07H137.458V26H136.428ZM136.948 20.4C136.748 20.4 136.578 20.3367 136.438 20.21C136.305 20.0767 136.238 19.9067 136.238 19.7C136.238 19.4933 136.305 19.3267 136.438 19.2C136.578 19.0667 136.748 19 136.948 19C137.155 19 137.325 19.0667 137.458 19.2C137.591 19.3267 137.658 19.4933 137.658 19.7C137.658 19.9067 137.591 20.0767 137.458 20.21C137.325 20.3367 137.155 20.4 136.948 20.4ZM138.967 23.91V22.97H141.927V23.91H138.967ZM146.27 26.14C145.79 26.14 145.42 26.0533 145.16 25.88C144.907 25.7067 144.717 25.5133 144.59 25.3H144.43V26H143.42V19H144.45V21.74H144.61C144.69 21.6067 144.797 21.48 144.93 21.36C145.063 21.2333 145.24 21.13 145.46 21.05C145.68 20.97 145.95 20.93 146.27 20.93C146.683 20.93 147.063 21.03 147.41 21.23C147.757 21.43 148.033 21.72 148.24 22.1C148.447 22.48 148.55 22.9333 148.55 23.46V23.61C148.55 24.1433 148.443 24.6 148.23 24.98C148.023 25.3533 147.747 25.64 147.4 25.84C147.06 26.04 146.683 26.14 146.27 26.14ZM145.97 25.24C146.417 25.24 146.783 25.0967 147.07 24.81C147.363 24.5233 147.51 24.1133 147.51 23.58V23.49C147.51 22.9633 147.367 22.5567 147.08 22.27C146.793 21.9833 146.423 21.84 145.97 21.84C145.53 21.84 145.163 21.9833 144.87 22.27C144.583 22.5567 144.44 22.9633 144.44 23.49V23.58C144.44 24.1133 144.583 24.5233 144.87 24.81C145.163 25.0967 145.53 25.24 145.97 25.24ZM152.136 26.14C151.643 26.14 151.203 26.04 150.816 25.84C150.436 25.6333 150.136 25.34 149.916 24.96C149.696 24.58 149.586 24.13 149.586 23.61V23.46C149.586 22.94 149.696 22.4933 149.916 22.12C150.136 21.74 150.436 21.4467 150.816 21.24C151.203 21.0333 151.643 20.93 152.136 20.93C152.63 20.93 153.07 21.0333 153.456 21.24C153.843 21.4467 154.146 21.74 154.366 22.12C154.586 22.4933 154.696 22.94 154.696 23.46V23.61C154.696 24.13 154.586 24.58 154.366 24.96C154.146 25.34 153.843 25.6333 153.456 25.84C153.07 26.04 152.63 26.14 152.136 26.14ZM152.136 25.22C152.59 25.22 152.956 25.0767 153.236 24.79C153.523 24.4967 153.666 24.0933 153.666 23.58V23.49C153.666 22.9767 153.526 22.5767 153.246 22.29C152.966 21.9967 152.596 21.85 152.136 21.85C151.69 21.85 151.323 21.9967 151.036 22.29C150.756 22.5767 150.616 22.9767 150.616 23.49V23.58C150.616 24.0933 150.756 24.4967 151.036 24.79C151.323 25.0767 151.69 25.22 152.136 25.22ZM156.943 26L155.283 21.07H156.373L157.683 25.24H157.843L159.153 21.07H160.243L158.583 26H156.943ZM163.377 26.14C162.883 26.14 162.443 26.04 162.057 25.84C161.677 25.6333 161.377 25.34 161.157 24.96C160.937 24.58 160.827 24.13 160.827 23.61V23.46C160.827 22.94 160.937 22.4933 161.157 22.12C161.377 21.74 161.677 21.4467 162.057 21.24C162.443 21.0333 162.883 20.93 163.377 20.93C163.87 20.93 164.31 21.0333 164.697 21.24C165.083 21.4467 165.387 21.74 165.607 22.12C165.827 22.4933 165.937 22.94 165.937 23.46V23.61C165.937 24.13 165.827 24.58 165.607 24.96C165.387 25.34 165.083 25.6333 164.697 25.84C164.31 26.04 163.87 26.14 163.377 26.14ZM163.377 25.22C163.83 25.22 164.197 25.0767 164.477 24.79C164.763 24.4967 164.907 24.0933 164.907 23.58V23.49C164.907 22.9767 164.767 22.5767 164.487 22.29C164.207 21.9967 163.837 21.85 163.377 21.85C162.93 21.85 162.563 21.9967 162.277 22.29C161.997 22.5767 161.857 22.9767 161.857 23.49V23.58C161.857 24.0933 161.997 24.4967 162.277 24.79C162.563 25.0767 162.93 25.22 163.377 25.22ZM167.219 26V21.07H168.249V26H167.219ZM167.739 20.4C167.539 20.4 167.369 20.3367 167.229 20.21C167.096 20.0767 167.029 19.9067 167.029 19.7C167.029 19.4933 167.096 19.3267 167.229 19.2C167.369 19.0667 167.539 19 167.739 19C167.946 19 168.116 19.0667 168.249 19.2C168.382 19.3267 168.449 19.4933 168.449 19.7C168.449 19.9067 168.382 20.0767 168.249 20.21C168.116 20.3367 167.946 20.4 167.739 20.4ZM171.818 26.14C171.411 26.14 171.034 26.04 170.688 25.84C170.341 25.64 170.061 25.3533 169.848 24.98C169.641 24.6 169.538 24.1433 169.538 23.61V23.46C169.538 22.9333 169.641 22.48 169.848 22.1C170.054 21.72 170.331 21.43 170.678 21.23C171.024 21.03 171.404 20.93 171.818 20.93C172.138 20.93 172.404 20.97 172.618 21.05C172.838 21.13 173.018 21.2333 173.158 21.36C173.298 21.48 173.404 21.6067 173.478 21.74H173.638V19H174.668V26H173.658V25.3H173.498C173.371 25.5133 173.178 25.7067 172.918 25.88C172.664 26.0533 172.298 26.14 171.818 26.14ZM172.108 25.24C172.554 25.24 172.921 25.0967 173.208 24.81C173.501 24.5233 173.648 24.1133 173.648 23.58V23.49C173.648 22.9633 173.504 22.5567 173.218 22.27C172.931 21.9833 172.561 21.84 172.108 21.84C171.668 21.84 171.301 21.9833 171.008 22.27C170.721 22.5567 170.578 22.9633 170.578 23.49V23.58C170.578 24.1133 170.721 24.5233 171.008 24.81C171.301 25.0967 171.668 25.24 172.108 25.24ZM180.753 26.14C180.126 26.14 179.606 26 179.193 25.72C178.779 25.44 178.526 25.0167 178.433 24.45L179.393 24.22C179.446 24.4933 179.536 24.71 179.663 24.87C179.789 25.03 179.946 25.1433 180.133 25.21C180.326 25.2767 180.533 25.31 180.753 25.31C181.079 25.31 181.329 25.2467 181.503 25.12C181.683 24.9933 181.773 24.83 181.773 24.63C181.773 24.43 181.689 24.2833 181.523 24.19C181.356 24.0967 181.109 24.02 180.783 23.96L180.443 23.9C180.109 23.84 179.806 23.7533 179.533 23.64C179.259 23.5267 179.043 23.37 178.883 23.17C178.723 22.97 178.643 22.7133 178.643 22.4C178.643 21.9333 178.816 21.5733 179.163 21.32C179.509 21.06 179.969 20.93 180.543 20.93C181.096 20.93 181.549 21.0567 181.903 21.31C182.263 21.5567 182.496 21.8933 182.603 22.32L181.643 22.59C181.583 22.29 181.456 22.08 181.263 21.96C181.069 21.8333 180.829 21.77 180.543 21.77C180.263 21.77 180.043 21.8233 179.883 21.93C179.723 22.03 179.643 22.1733 179.643 22.36C179.643 22.56 179.719 22.7067 179.873 22.8C180.033 22.8933 180.246 22.9633 180.513 23.01L180.863 23.07C181.216 23.13 181.539 23.2133 181.833 23.32C182.126 23.4267 182.356 23.58 182.523 23.78C182.696 23.98 182.783 24.2467 182.783 24.58C182.783 25.0733 182.599 25.4567 182.233 25.73C181.866 26.0033 181.373 26.14 180.753 26.14ZM183.987 26V19H185.017V26H183.987ZM188.855 26.14C188.362 26.14 187.922 26.04 187.535 25.84C187.155 25.6333 186.855 25.34 186.635 24.96C186.415 24.58 186.305 24.13 186.305 23.61V23.46C186.305 22.94 186.415 22.4933 186.635 22.12C186.855 21.74 187.155 21.4467 187.535 21.24C187.922 21.0333 188.362 20.93 188.855 20.93C189.348 20.93 189.788 21.0333 190.175 21.24C190.562 21.4467 190.865 21.74 191.085 22.12C191.305 22.4933 191.415 22.94 191.415 23.46V23.61C191.415 24.13 191.305 24.58 191.085 24.96C190.865 25.34 190.562 25.6333 190.175 25.84C189.788 26.04 189.348 26.14 188.855 26.14ZM188.855 25.22C189.308 25.22 189.675 25.0767 189.955 24.79C190.242 24.4967 190.385 24.0933 190.385 23.58V23.49C190.385 22.9767 190.245 22.5767 189.965 22.29C189.685 21.9967 189.315 21.85 188.855 21.85C188.408 21.85 188.042 21.9967 187.755 22.29C187.475 22.5767 187.335 22.9767 187.335 23.49V23.58C187.335 24.0933 187.475 24.4967 187.755 24.79C188.042 25.0767 188.408 25.22 188.855 25.22ZM194.362 26C194.062 26 193.822 25.91 193.642 25.73C193.469 25.55 193.382 25.31 193.382 25.01V21.94H192.022V21.07H193.382V19.44H194.412V21.07H195.882V21.94H194.412V24.83C194.412 25.03 194.505 25.13 194.692 25.13H195.722V26H194.362ZM199.112 26.14C198.485 26.14 197.965 26 197.552 25.72C197.139 25.44 196.885 25.0167 196.792 24.45L197.752 24.22C197.805 24.4933 197.895 24.71 198.022 24.87C198.149 25.03 198.305 25.1433 198.492 25.21C198.685 25.2767 198.892 25.31 199.112 25.31C199.439 25.31 199.689 25.2467 199.862 25.12C200.042 24.9933 200.132 24.83 200.132 24.63C200.132 24.43 200.049 24.2833 199.882 24.19C199.715 24.0967 199.469 24.02 199.142 23.96L198.802 23.9C198.469 23.84 198.165 23.7533 197.892 23.64C197.619 23.5267 197.402 23.37 197.242 23.17C197.082 22.97 197.002 22.7133 197.002 22.4C197.002 21.9333 197.175 21.5733 197.522 21.32C197.869 21.06 198.329 20.93 198.902 20.93C199.455 20.93 199.909 21.0567 200.262 21.31C200.622 21.5567 200.855 21.8933 200.962 22.32L200.002 22.59C199.942 22.29 199.815 22.08 199.622 21.96C199.429 21.8333 199.189 21.77 198.902 21.77C198.622 21.77 198.402 21.8233 198.242 21.93C198.082 22.03 198.002 22.1733 198.002 22.36C198.002 22.56 198.079 22.7067 198.232 22.8C198.392 22.8933 198.605 22.9633 198.872 23.01L199.222 23.07C199.575 23.13 199.899 23.2133 200.192 23.32C200.485 23.4267 200.715 23.58 200.882 23.78C201.055 23.98 201.142 24.2467 201.142 24.58C201.142 25.0733 200.959 25.4567 200.592 25.73C200.225 26.0033 199.732 26.14 199.112 26.14ZM207.205 26.14C206.711 26.14 206.271 26.04 205.885 25.84C205.505 25.6333 205.205 25.34 204.985 24.96C204.765 24.58 204.655 24.13 204.655 23.61V23.46C204.655 22.94 204.765 22.4933 204.985 22.12C205.205 21.74 205.505 21.4467 205.885 21.24C206.271 21.0333 206.711 20.93 207.205 20.93C207.698 20.93 208.138 21.0333 208.525 21.24C208.911 21.4467 209.215 21.74 209.435 22.12C209.655 22.4933 209.765 22.94 209.765 23.46V23.61C209.765 24.13 209.655 24.58 209.435 24.96C209.215 25.34 208.911 25.6333 208.525 25.84C208.138 26.04 207.698 26.14 207.205 26.14ZM207.205 25.22C207.658 25.22 208.025 25.0767 208.305 24.79C208.591 24.4967 208.735 24.0933 208.735 23.58V23.49C208.735 22.9767 208.595 22.5767 208.315 22.29C208.035 21.9967 207.665 21.85 207.205 21.85C206.758 21.85 206.391 21.9967 206.105 22.29C205.825 22.5767 205.685 22.9767 205.685 23.49V23.58C205.685 24.0933 205.825 24.4967 206.105 24.79C206.391 25.0767 206.758 25.22 207.205 25.22ZM211.047 26V21.07H212.057V21.81H212.217C212.31 21.61 212.477 21.4233 212.717 21.25C212.957 21.0767 213.314 20.99 213.787 20.99C214.16 20.99 214.49 21.0733 214.777 21.24C215.07 21.4067 215.3 21.6433 215.467 21.95C215.634 22.25 215.717 22.6133 215.717 23.04V26H214.687V23.12C214.687 22.6933 214.58 22.38 214.367 22.18C214.154 21.9733 213.86 21.87 213.487 21.87C213.06 21.87 212.717 22.01 212.457 22.29C212.204 22.57 212.077 22.9767 212.077 23.51V26H211.047ZM221.768 26.14C221.142 26.14 220.622 26 220.208 25.72C219.795 25.44 219.542 25.0167 219.448 24.45L220.408 24.22C220.462 24.4933 220.552 24.71 220.678 24.87C220.805 25.03 220.962 25.1433 221.148 25.21C221.342 25.2767 221.548 25.31 221.768 25.31C222.095 25.31 222.345 25.2467 222.518 25.12C222.698 24.9933 222.788 24.83 222.788 24.63C222.788 24.43 222.705 24.2833 222.538 24.19C222.372 24.0967 222.125 24.02 221.798 23.96L221.458 23.9C221.125 23.84 220.822 23.7533 220.548 23.64C220.275 23.5267 220.058 23.37 219.898 23.17C219.738 22.97 219.658 22.7133 219.658 22.4C219.658 21.9333 219.832 21.5733 220.178 21.32C220.525 21.06 220.985 20.93 221.558 20.93C222.112 20.93 222.565 21.0567 222.918 21.31C223.278 21.5567 223.512 21.8933 223.618 22.32L222.658 22.59C222.598 22.29 222.472 22.08 222.278 21.96C222.085 21.8333 221.845 21.77 221.558 21.77C221.278 21.77 221.058 21.8233 220.898 21.93C220.738 22.03 220.658 22.1733 220.658 22.36C220.658 22.56 220.735 22.7067 220.888 22.8C221.048 22.8933 221.262 22.9633 221.528 23.01L221.878 23.07C222.232 23.13 222.555 23.2133 222.848 23.32C223.142 23.4267 223.372 23.58 223.538 23.78C223.712 23.98 223.798 24.2467 223.798 24.58C223.798 25.0733 223.615 25.4567 223.248 25.73C222.882 26.0033 222.388 26.14 221.768 26.14ZM225.002 26V21.07H226.032V26H225.002ZM225.522 20.4C225.322 20.4 225.152 20.3367 225.012 20.21C224.879 20.0767 224.812 19.9067 224.812 19.7C224.812 19.4933 224.879 19.3267 225.012 19.2C225.152 19.0667 225.322 19 225.522 19C225.729 19 225.899 19.0667 226.032 19.2C226.166 19.3267 226.232 19.4933 226.232 19.7C226.232 19.9067 226.166 20.0767 226.032 20.21C225.899 20.3367 225.729 20.4 225.522 20.4ZM229.601 26.14C229.194 26.14 228.817 26.04 228.471 25.84C228.124 25.64 227.844 25.3533 227.631 24.98C227.424 24.6 227.321 24.1433 227.321 23.61V23.46C227.321 22.9333 227.424 22.48 227.631 22.1C227.837 21.72 228.114 21.43 228.461 21.23C228.807 21.03 229.187 20.93 229.601 20.93C229.921 20.93 230.187 20.97 230.401 21.05C230.621 21.13 230.801 21.2333 230.941 21.36C231.081 21.48 231.187 21.6067 231.261 21.74H231.421V19H232.451V26H231.441V25.3H231.281C231.154 25.5133 230.961 25.7067 230.701 25.88C230.447 26.0533 230.081 26.14 229.601 26.14ZM229.891 25.24C230.337 25.24 230.704 25.0967 230.991 24.81C231.284 24.5233 231.431 24.1133 231.431 23.58V23.49C231.431 22.9633 231.287 22.5567 231.001 22.27C230.714 21.9833 230.344 21.84 229.891 21.84C229.451 21.84 229.084 21.9833 228.791 22.27C228.504 22.5567 228.361 22.9633 228.361 23.49V23.58C228.361 24.1133 228.504 24.5233 228.791 24.81C229.084 25.0967 229.451 25.24 229.891 25.24ZM236.227 26.14C235.727 26.14 235.29 26.0367 234.917 25.83C234.544 25.6167 234.25 25.32 234.037 24.94C233.83 24.5533 233.727 24.1067 233.727 23.6V23.48C233.727 22.9667 233.83 22.52 234.037 22.14C234.244 21.7533 234.53 21.4567 234.897 21.25C235.27 21.0367 235.7 20.93 236.187 20.93C236.66 20.93 237.074 21.0367 237.427 21.25C237.787 21.4567 238.067 21.7467 238.267 22.12C238.467 22.4933 238.567 22.93 238.567 23.43V23.82H234.777C234.79 24.2533 234.934 24.6 235.207 24.86C235.487 25.1133 235.834 25.24 236.247 25.24C236.634 25.24 236.924 25.1533 237.117 24.98C237.317 24.8067 237.47 24.6067 237.577 24.38L238.427 24.82C238.334 25.0067 238.197 25.2033 238.017 25.41C237.844 25.6167 237.614 25.79 237.327 25.93C237.04 26.07 236.674 26.14 236.227 26.14ZM234.787 23.03H237.517C237.49 22.6567 237.357 22.3667 237.117 22.16C236.877 21.9467 236.564 21.84 236.177 21.84C235.79 21.84 235.474 21.9467 235.227 22.16C234.987 22.3667 234.84 22.6567 234.787 23.03ZM243.246 26V21.94H241.866V21.07H243.246V19.99C243.246 19.69 243.336 19.45 243.516 19.27C243.696 19.09 243.936 19 244.236 19H245.506V19.87H244.566C244.372 19.87 244.276 19.97 244.276 20.17V21.07H245.696V21.94H244.276V26H243.246ZM248.64 26.09C248.267 26.09 247.934 26.0067 247.64 25.84C247.347 25.6733 247.117 25.4367 246.95 25.13C246.784 24.8233 246.7 24.4567 246.7 24.03V21.07H247.73V23.96C247.73 24.3867 247.837 24.7033 248.05 24.91C248.264 25.11 248.56 25.21 248.94 25.21C249.36 25.21 249.697 25.07 249.95 24.79C250.21 24.5033 250.34 24.0933 250.34 23.56V21.07H251.37V26H250.36V25.26H250.2C250.107 25.46 249.94 25.65 249.7 25.83C249.46 26.0033 249.107 26.09 248.64 26.09ZM252.893 26V21.07H253.903V21.65H254.063C254.156 21.4767 254.306 21.3233 254.513 21.19C254.719 21.0567 254.999 20.99 255.353 20.99C255.719 20.99 256.013 21.0667 256.233 21.22C256.459 21.3667 256.629 21.5567 256.743 21.79H256.903C257.016 21.5633 257.179 21.3733 257.393 21.22C257.613 21.0667 257.923 20.99 258.323 20.99C258.643 20.99 258.926 21.0567 259.173 21.19C259.419 21.3167 259.616 21.51 259.763 21.77C259.909 22.0233 259.983 22.34 259.983 22.72V26H258.953V22.8C258.953 22.5 258.869 22.27 258.703 22.11C258.543 21.9433 258.313 21.86 258.013 21.86C257.693 21.86 257.436 21.9633 257.243 22.17C257.049 22.3767 256.953 22.6733 256.953 23.06V26H255.923V22.8C255.923 22.5 255.839 22.27 255.673 22.11C255.513 21.9433 255.283 21.86 254.983 21.86C254.663 21.86 254.406 21.9633 254.213 22.17C254.019 22.3767 253.923 22.6733 253.923 23.06V26H252.893ZM264.317 26.14C263.837 26.14 263.467 26.0533 263.207 25.88C262.954 25.7067 262.764 25.5133 262.637 25.3H262.477V26H261.467V19H262.497V21.74H262.657C262.737 21.6067 262.844 21.48 262.977 21.36C263.11 21.2333 263.287 21.13 263.507 21.05C263.727 20.97 263.997 20.93 264.317 20.93C264.73 20.93 265.11 21.03 265.457 21.23C265.804 21.43 266.08 21.72 266.287 22.1C266.494 22.48 266.597 22.9333 266.597 23.46V23.61C266.597 24.1433 266.49 24.6 266.277 24.98C266.07 25.3533 265.794 25.64 265.447 25.84C265.107 26.04 264.73 26.14 264.317 26.14ZM264.017 25.24C264.464 25.24 264.83 25.0967 265.117 24.81C265.41 24.5233 265.557 24.1133 265.557 23.58V23.49C265.557 22.9633 265.414 22.5567 265.127 22.27C264.84 21.9833 264.47 21.84 264.017 21.84C263.577 21.84 263.21 21.9833 262.917 22.27C262.63 22.5567 262.487 22.9633 262.487 23.49V23.58C262.487 24.1133 262.63 24.5233 262.917 24.81C263.21 25.0967 263.577 25.24 264.017 25.24ZM267.873 26V19H268.903V26H267.873ZM270.432 26V21.07H271.462V26H270.432ZM270.952 20.4C270.752 20.4 270.582 20.3367 270.442 20.21C270.309 20.0767 270.242 19.9067 270.242 19.7C270.242 19.4933 270.309 19.3267 270.442 19.2C270.582 19.0667 270.752 19 270.952 19C271.159 19 271.329 19.0667 271.462 19.2C271.595 19.3267 271.662 19.4933 271.662 19.7C271.662 19.9067 271.595 20.0767 271.462 20.21C271.329 20.3367 271.159 20.4 270.952 20.4ZM272.99 26V21.07H274V21.81H274.16C274.254 21.61 274.42 21.4233 274.66 21.25C274.9 21.0767 275.257 20.99 275.73 20.99C276.104 20.99 276.434 21.0733 276.72 21.24C277.014 21.4067 277.244 21.6433 277.41 21.95C277.577 22.25 277.66 22.6133 277.66 23.04V26H276.63V23.12C276.63 22.6933 276.524 22.38 276.31 22.18C276.097 21.9733 275.804 21.87 275.43 21.87C275.004 21.87 274.66 22.01 274.4 22.29C274.147 22.57 274.02 22.9767 274.02 23.51V26H272.99ZM278.903 23.56V23.41C278.903 22.89 279.006 22.4467 279.213 22.08C279.426 21.7133 279.706 21.43 280.053 21.23C280.399 21.03 280.779 20.93 281.193 20.93C281.673 20.93 282.039 21.02 282.293 21.2C282.553 21.38 282.743 21.5733 282.863 21.78H283.023V21.07H284.023V27.01C284.023 27.31 283.933 27.55 283.753 27.73C283.579 27.91 283.339 28 283.033 28H279.713V27.1H282.713C282.906 27.1 283.003 27 283.003 26.8V25.23H282.843C282.769 25.35 282.666 25.4733 282.533 25.6C282.399 25.7267 282.223 25.83 282.003 25.91C281.789 25.99 281.519 26.03 281.193 26.03C280.779 26.03 280.396 25.9333 280.043 25.74C279.696 25.54 279.419 25.2567 279.213 24.89C279.006 24.5167 278.903 24.0733 278.903 23.56ZM281.473 25.13C281.919 25.13 282.286 24.99 282.573 24.71C282.866 24.4233 283.013 24.03 283.013 23.53V23.44C283.013 22.9267 282.869 22.5333 282.583 22.26C282.296 21.98 281.926 21.84 281.473 21.84C281.033 21.84 280.666 21.98 280.373 22.26C280.086 22.5333 279.943 22.9267 279.943 23.44V23.53C279.943 24.03 280.086 24.4233 280.373 24.71C280.666 24.99 281.033 25.13 281.473 25.13Z" fill="black"/>
<path d="M20.5 39V179.5H281" stroke="black"/>
<path d="M20 179.5H280.996" stroke="#FF0000" stroke-opacity="0.1"/>
<path d="M20 169.5H280.996" stroke="#FF0000" stroke-opacity="0.1"/>
<path d="M20 159.5H280.996" stroke="#FF0000" stroke-opacity="0.1"/>
<path d="M20 149.5H280.996" stroke="#FF0000" stroke-opacity="0.1"/>
<path d="M20 139.5H280.996" stroke="#FF0000" stroke-opacity="0.1"/>
<path d="M20 129.5H280.996" stroke="#FF0000" stroke-opacity="0.1"/>
<path d="M20 119.5H280.996" stroke="#FF0000" stroke-opacity="0.1"/>
<path d="M20 109.5H280.996" stroke="#FF0000" stroke-opacity="0.1"/>
<path d="M20 99.5H280.996" stroke="#FF0000" stroke-opacity="0.1"/>
<path d="M20 89.5H280.996" stroke="#FF0000" stroke-opacity="0.1"/>
<path d="M20 79.5H280.996" stroke="#FF0000" stroke-opacity="0.1"/>
<path d="M20 69.5H280.996" stroke="#FF0000" stroke-opacity="0.1"/>
<path d="M20 59.5H280.996" stroke="#FF0000" stroke-opacity="0.1"/>
<path d="M20 49.5H280.996" stroke="#FF0000" stroke-opacity="0.1"/>
<path d="M21.0039 39.5L281 40" stroke="#FF0000" stroke-opacity="0.1"/>
<path d="M20.5 39.5071V180" stroke="#FF0000" stroke-opacity="0.1"/>
<path d="M30.4998 39.5071V180" stroke="#FF0000" stroke-opacity="0.1"/>
<path d="M40.4998 39.5071V180" stroke="#FF0000" stroke-opacity="0.1"/>
<path d="M50.5002 39.5071V180" stroke="#FF0000" stroke-opacity="0.1"/>
<path d="M60.5 39.5071V180" stroke="#FF0000" stroke-opacity="0.1"/>
<path d="M70.5 39.5071V180" stroke="#FF0000" stroke-opacity="0.1"/>
<path d="M80.4998 39.5071V180" stroke="#FF0000" stroke-opacity="0.1"/>
<path d="M90.5002 39.5071V180" stroke="#FF0000" stroke-opacity="0.1"/>
<path d="M100.5 39.5071V180" stroke="#FF0000" stroke-opacity="0.1"/>
<path d="M110.5 39.5071V180" stroke="#FF0000" stroke-opacity="0.1"/>
<path d="M120.5 39.5071V180" stroke="#FF0000" stroke-opacity="0.1"/>
<path d="M130.5 39.5071V180" stroke="#FF0000" stroke-opacity="0.1"/>
<path d="M140.5 39.5071V180" stroke="#FF0000" stroke-opacity="0.1"/>
<path d="M150.5 39.5071V180" stroke="#FF0000" stroke-opacity="0.1"/>
<path d="M160.5 39.5071V180" stroke="#FF0000" stroke-opacity="0.1"/>
<path d="M170.5 39.5071V180" stroke="#FF0000" stroke-opacity="0.1"/>
<path d="M180.5 39.5071V180" stroke="#FF0000" stroke-opacity="0.1"/>
<path d="M190.5 39.5071V180" stroke="#FF0000" stroke-opacity="0.1"/>
<path d="M200.5 39.5071V180" stroke="#FF0000" stroke-opacity="0.1"/>
<path d="M210.5 39.5071V180" stroke="#FF0000" stroke-opacity="0.1"/>
<path d="M220.5 39.5071V180" stroke="#FF0000" stroke-opacity="0.1"/>
<path d="M230.5 39.5071V180" stroke="#FF0000" stroke-opacity="0.1"/>
<path d="M240.5 39.5071V180" stroke="#FF0000" stroke-opacity="0.1"/>
<path d="M250.5 39.5071V180" stroke="#FF0000" stroke-opacity="0.1"/>
<path d="M260.5 39.5071V180" stroke="#FF0000" stroke-opacity="0.1"/>
<path d="M270.5 39.5071V180" stroke="#FF0000" stroke-opacity="0.1"/>
<path d="M280.5 39.5V179.993" stroke="#FF0000" stroke-opacity="0.1"/>
<path d="M13.9969 190.14C13.2035 190.14 12.5702 189.907 12.0969 189.44C11.6302 188.967 11.3969 188.26 11.3969 187.32V185.68C11.3969 184.747 11.6302 184.043 12.0969 183.57C12.5702 183.097 13.2035 182.86 13.9969 182.86C14.7969 182.86 15.4302 183.097 15.8969 183.57C16.3702 184.043 16.6069 184.747 16.6069 185.68V187.32C16.6069 188.26 16.3702 188.967 15.8969 189.44C15.4302 189.907 14.7969 190.14 13.9969 190.14ZM13.9969 189.41C14.5969 189.41 15.0469 189.23 15.3469 188.87C15.6469 188.51 15.7969 188.007 15.7969 187.36V185.63C15.7969 184.983 15.6435 184.483 15.3369 184.13C15.0302 183.77 14.5835 183.59 13.9969 183.59C13.4102 183.59 12.9635 183.77 12.6569 184.13C12.3569 184.49 12.2069 184.99 12.2069 185.63V187.36C12.2069 188.013 12.3569 188.52 12.6569 188.88C12.9569 189.233 13.4035 189.41 13.9969 189.41Z" fill="black"/>
<path d="M11.5173 164V163.27C11.5173 162.77 11.604 162.37 11.7773 162.07C11.9573 161.77 12.204 161.53 12.5173 161.35C12.8373 161.163 13.2173 161.003 13.6573 160.87L14.2073 160.7C14.5073 160.607 14.7706 160.493 14.9973 160.36C15.224 160.22 15.4006 160.047 15.5273 159.84C15.654 159.627 15.7173 159.367 15.7173 159.06V159.02C15.7173 158.58 15.564 158.233 15.2573 157.98C14.9506 157.72 14.5573 157.59 14.0773 157.59C13.5706 157.59 13.1573 157.727 12.8373 158C12.5173 158.267 12.3573 158.673 12.3573 159.22V159.36H11.5573V159.23C11.5573 158.723 11.6673 158.293 11.8873 157.94C12.1073 157.587 12.4073 157.32 12.7873 157.14C13.1673 156.953 13.5973 156.86 14.0773 156.86C14.5573 156.86 14.9806 156.95 15.3473 157.13C15.7206 157.31 16.0106 157.56 16.2173 157.88C16.424 158.2 16.5273 158.573 16.5273 159V159.09C16.5273 159.543 16.4373 159.92 16.2573 160.22C16.0773 160.513 15.8273 160.753 15.5073 160.94C15.194 161.127 14.824 161.287 14.3973 161.42L13.8573 161.59C13.5173 161.697 13.234 161.81 13.0073 161.93C12.7873 162.043 12.6206 162.19 12.5073 162.37C12.394 162.55 12.3373 162.793 12.3373 163.1V163.27H16.4673V164H11.5173Z" fill="black"/>
<path d="M40.845 190V188.57H37.195V187.61L40.135 183H41.655V187.84H42.855V188.57H41.655V190H40.845ZM38.005 187.84H40.845V183.49H40.705L38.005 187.72V187.84Z" fill="black"/>
<path d="M59.9948 190.14C59.4548 190.14 58.9848 190.06 58.5848 189.9C58.1914 189.733 57.8848 189.503 57.6648 189.21C57.4514 188.91 57.3448 188.56 57.3448 188.16V188.05C57.3448 187.703 57.4181 187.417 57.5648 187.19C57.7114 186.963 57.8881 186.79 58.0948 186.67C58.3081 186.543 58.5048 186.463 58.6848 186.43V186.3C58.5048 186.247 58.3181 186.16 58.1248 186.04C57.9381 185.92 57.7814 185.757 57.6548 185.55C57.5348 185.343 57.4748 185.09 57.4748 184.79V184.68C57.4748 184.3 57.5814 183.977 57.7948 183.71C58.0148 183.437 58.3148 183.227 58.6948 183.08C59.0748 182.933 59.5081 182.86 59.9948 182.86C60.4881 182.86 60.9214 182.933 61.2948 183.08C61.6748 183.227 61.9714 183.437 62.1848 183.71C62.4048 183.977 62.5148 184.3 62.5148 184.68V184.79C62.5148 185.09 62.4548 185.343 62.3348 185.55C62.2148 185.757 62.0614 185.92 61.8748 186.04C61.6881 186.16 61.5014 186.247 61.3148 186.3V186.43C61.5014 186.463 61.6981 186.543 61.9048 186.67C62.1114 186.79 62.2848 186.963 62.4248 187.19C62.5714 187.417 62.6448 187.703 62.6448 188.05V188.16C62.6448 188.56 62.5381 188.91 62.3248 189.21C62.1114 189.503 61.8048 189.733 61.4048 189.9C61.0114 190.06 60.5414 190.14 59.9948 190.14ZM59.9948 189.41C60.5614 189.41 61.0081 189.3 61.3348 189.08C61.6681 188.86 61.8348 188.54 61.8348 188.12V188.04C61.8348 187.62 61.6714 187.3 61.3448 187.08C61.0181 186.86 60.5681 186.75 59.9948 186.75C59.4281 186.75 58.9814 186.86 58.6548 187.08C58.3281 187.3 58.1648 187.62 58.1648 188.04V188.12C58.1648 188.54 58.3281 188.86 58.6548 189.08C58.9881 189.3 59.4348 189.41 59.9948 189.41ZM59.9948 186.02C60.5281 186.02 60.9448 185.92 61.2448 185.72C61.5514 185.513 61.7048 185.223 61.7048 184.85V184.77C61.7048 184.39 61.5514 184.1 61.2448 183.9C60.9381 183.693 60.5214 183.59 59.9948 183.59C59.4681 183.59 59.0514 183.693 58.7448 183.9C58.4381 184.1 58.2848 184.39 58.2848 184.77V184.85C58.2848 185.223 58.4381 185.513 58.7448 185.72C59.0514 185.92 59.4681 186.02 59.9948 186.02Z" fill="black"/>
<path d="M77.9675 190V183.54H77.8175L76.4575 186.03H75.5775L77.2475 183H78.7775V190H77.9675ZM80.1071 190V189.27C80.1071 188.77 80.1938 188.37 80.3671 188.07C80.5471 187.77 80.7938 187.53 81.1071 187.35C81.4271 187.163 81.8071 187.003 82.2471 186.87L82.7971 186.7C83.0971 186.607 83.3605 186.493 83.5871 186.36C83.8138 186.22 83.9905 186.047 84.1171 185.84C84.2438 185.627 84.3071 185.367 84.3071 185.06V185.02C84.3071 184.58 84.1538 184.233 83.8471 183.98C83.5405 183.72 83.1471 183.59 82.6671 183.59C82.1605 183.59 81.7471 183.727 81.4271 184C81.1071 184.267 80.9471 184.673 80.9471 185.22V185.36H80.1471V185.23C80.1471 184.723 80.2571 184.293 80.4771 183.94C80.6971 183.587 80.9971 183.32 81.3771 183.14C81.7571 182.953 82.1871 182.86 82.6671 182.86C83.1471 182.86 83.5705 182.95 83.9371 183.13C84.3105 183.31 84.6005 183.56 84.8071 183.88C85.0138 184.2 85.1171 184.573 85.1171 185V185.09C85.1171 185.543 85.0271 185.92 84.8471 186.22C84.6671 186.513 84.4171 186.753 84.0971 186.94C83.7838 187.127 83.4138 187.287 82.9871 187.42L82.4471 187.59C82.1071 187.697 81.8238 187.81 81.5971 187.93C81.3771 188.043 81.2105 188.19 81.0971 188.37C80.9838 188.55 80.9271 188.793 80.9271 189.1V189.27H85.0571V190H80.1071Z" fill="black"/>
<path d="M97.9186 190V183.54H97.7686L96.4086 186.03H95.5286L97.1986 183H98.7286V190H97.9186ZM102.628 190.14C102.148 190.14 101.718 190.047 101.338 189.86C100.965 189.667 100.668 189.393 100.448 189.04C100.235 188.687 100.128 188.267 100.128 187.78V185.34C100.128 184.813 100.232 184.367 100.438 184C100.645 183.633 100.935 183.353 101.308 183.16C101.688 182.96 102.138 182.86 102.658 182.86C103.172 182.86 103.608 182.953 103.968 183.14C104.335 183.32 104.612 183.57 104.798 183.89C104.992 184.203 105.088 184.567 105.088 184.98H104.268C104.268 184.567 104.135 184.233 103.868 183.98C103.602 183.72 103.198 183.59 102.658 183.59C102.112 183.59 101.688 183.74 101.388 184.04C101.088 184.333 100.938 184.74 100.938 185.26V186.23H101.078C101.198 186.03 101.398 185.847 101.678 185.68C101.958 185.507 102.348 185.42 102.848 185.42C103.268 185.42 103.652 185.513 103.998 185.7C104.345 185.887 104.622 186.15 104.828 186.49C105.035 186.83 105.138 187.233 105.138 187.7V187.82C105.138 188.293 105.028 188.703 104.808 189.05C104.595 189.397 104.298 189.667 103.918 189.86C103.538 190.047 103.108 190.14 102.628 190.14ZM102.628 189.41C103.135 189.41 103.545 189.267 103.858 188.98C104.172 188.693 104.328 188.303 104.328 187.81V187.73C104.328 187.397 104.255 187.11 104.108 186.87C103.968 186.63 103.772 186.443 103.518 186.31C103.265 186.17 102.968 186.1 102.628 186.1C102.295 186.1 102.002 186.17 101.748 186.31C101.495 186.443 101.295 186.63 101.148 186.87C101.008 187.11 100.938 187.397 100.938 187.73V187.81C100.938 188.303 101.095 188.693 101.408 188.98C101.722 189.267 102.128 189.41 102.628 189.41Z" fill="black"/>
<path d="M114.814 190V189.27C114.814 188.77 114.901 188.37 115.074 188.07C115.254 187.77 115.501 187.53 115.814 187.35C116.134 187.163 116.514 187.003 116.954 186.87L117.504 186.7C117.804 186.607 118.068 186.493 118.294 186.36C118.521 186.22 118.698 186.047 118.824 185.84C118.951 185.627 119.014 185.367 119.014 185.06V185.02C119.014 184.58 118.861 184.233 118.554 183.98C118.248 183.72 117.854 183.59 117.374 183.59C116.868 183.59 116.454 183.727 116.134 184C115.814 184.267 115.654 184.673 115.654 185.22V185.36H114.854V185.23C114.854 184.723 114.964 184.293 115.184 183.94C115.404 183.587 115.704 183.32 116.084 183.14C116.464 182.953 116.894 182.86 117.374 182.86C117.854 182.86 118.278 182.95 118.644 183.13C119.018 183.31 119.308 183.56 119.514 183.88C119.721 184.2 119.824 184.573 119.824 185V185.09C119.824 185.543 119.734 185.92 119.554 186.22C119.374 186.513 119.124 186.753 118.804 186.94C118.491 187.127 118.121 187.287 117.694 187.42L117.154 187.59C116.814 187.697 116.531 187.81 116.304 187.93C116.084 188.043 115.918 188.19 115.804 188.37C115.691 188.55 115.634 188.793 115.634 189.1V189.27H119.764V190H114.814ZM123.51 190.14C122.716 190.14 122.083 189.907 121.61 189.44C121.143 188.967 120.91 188.26 120.91 187.32V185.68C120.91 184.747 121.143 184.043 121.61 183.57C122.083 183.097 122.716 182.86 123.51 182.86C124.31 182.86 124.943 183.097 125.41 183.57C125.883 184.043 126.12 184.747 126.12 185.68V187.32C126.12 188.26 125.883 188.967 125.41 189.44C124.943 189.907 124.31 190.14 123.51 190.14ZM123.51 189.41C124.11 189.41 124.56 189.23 124.86 188.87C125.16 188.51 125.31 188.007 125.31 187.36V185.63C125.31 184.983 125.156 184.483 124.85 184.13C124.543 183.77 124.096 183.59 123.51 183.59C122.923 183.59 122.476 183.77 122.17 184.13C121.87 184.49 121.72 184.99 121.72 185.63V187.36C121.72 188.013 121.87 188.52 122.17 188.88C122.47 189.233 122.916 189.41 123.51 189.41Z" fill="black"/>
<path d="M134.539 190V189.27C134.539 188.77 134.625 188.37 134.799 188.07C134.979 187.77 135.225 187.53 135.539 187.35C135.859 187.163 136.239 187.003 136.679 186.87L137.229 186.7C137.529 186.607 137.792 186.493 138.019 186.36C138.245 186.22 138.422 186.047 138.549 185.84C138.675 185.627 138.739 185.367 138.739 185.06V185.02C138.739 184.58 138.585 184.233 138.279 183.98C137.972 183.72 137.579 183.59 137.099 183.59C136.592 183.59 136.179 183.727 135.859 184C135.539 184.267 135.379 184.673 135.379 185.22V185.36H134.579V185.23C134.579 184.723 134.689 184.293 134.909 183.94C135.129 183.587 135.429 183.32 135.809 183.14C136.189 182.953 136.619 182.86 137.099 182.86C137.579 182.86 138.002 182.95 138.369 183.13C138.742 183.31 139.032 183.56 139.239 183.88C139.445 184.2 139.549 184.573 139.549 185V185.09C139.549 185.543 139.459 185.92 139.279 186.22C139.099 186.513 138.849 186.753 138.529 186.94C138.215 187.127 137.845 187.287 137.419 187.42L136.879 187.59C136.539 187.697 136.255 187.81 136.029 187.93C135.809 188.043 135.642 188.19 135.529 188.37C135.415 188.55 135.359 188.793 135.359 189.1V189.27H139.489V190H134.539ZM143.711 190V188.57H140.061V187.61L143.001 183H144.521V187.84H145.721V188.57H144.521V190H143.711ZM140.871 187.84H143.711V183.49H143.571L140.871 187.72V187.84Z" fill="black"/>
<path d="M154.902 190V189.27C154.902 188.77 154.989 188.37 155.162 188.07C155.342 187.77 155.589 187.53 155.902 187.35C156.222 187.163 156.602 187.003 157.042 186.87L157.592 186.7C157.892 186.607 158.155 186.493 158.382 186.36C158.609 186.22 158.785 186.047 158.912 185.84C159.039 185.627 159.102 185.367 159.102 185.06V185.02C159.102 184.58 158.949 184.233 158.642 183.98C158.335 183.72 157.942 183.59 157.462 183.59C156.955 183.59 156.542 183.727 156.222 184C155.902 184.267 155.742 184.673 155.742 185.22V185.36H154.942V185.23C154.942 184.723 155.052 184.293 155.272 183.94C155.492 183.587 155.792 183.32 156.172 183.14C156.552 182.953 156.982 182.86 157.462 182.86C157.942 182.86 158.365 182.95 158.732 183.13C159.105 183.31 159.395 183.56 159.602 183.88C159.809 184.2 159.912 184.573 159.912 185V185.09C159.912 185.543 159.822 185.92 159.642 186.22C159.462 186.513 159.212 186.753 158.892 186.94C158.579 187.127 158.209 187.287 157.782 187.42L157.242 187.59C156.902 187.697 156.619 187.81 156.392 187.93C156.172 188.043 156.005 188.19 155.892 188.37C155.779 188.55 155.722 188.793 155.722 189.1V189.27H159.852V190H154.902ZM163.507 190.14C162.967 190.14 162.497 190.06 162.097 189.9C161.704 189.733 161.397 189.503 161.177 189.21C160.964 188.91 160.857 188.56 160.857 188.16V188.05C160.857 187.703 160.931 187.417 161.077 187.19C161.224 186.963 161.401 186.79 161.607 186.67C161.821 186.543 162.017 186.463 162.197 186.43V186.3C162.017 186.247 161.831 186.16 161.637 186.04C161.451 185.92 161.294 185.757 161.167 185.55C161.047 185.343 160.987 185.09 160.987 184.79V184.68C160.987 184.3 161.094 183.977 161.307 183.71C161.527 183.437 161.827 183.227 162.207 183.08C162.587 182.933 163.021 182.86 163.507 182.86C164.001 182.86 164.434 182.933 164.807 183.08C165.187 183.227 165.484 183.437 165.697 183.71C165.917 183.977 166.027 184.3 166.027 184.68V184.79C166.027 185.09 165.967 185.343 165.847 185.55C165.727 185.757 165.574 185.92 165.387 186.04C165.201 186.16 165.014 186.247 164.827 186.3V186.43C165.014 186.463 165.211 186.543 165.417 186.67C165.624 186.79 165.797 186.963 165.937 187.19C166.084 187.417 166.157 187.703 166.157 188.05V188.16C166.157 188.56 166.051 188.91 165.837 189.21C165.624 189.503 165.317 189.733 164.917 189.9C164.524 190.06 164.054 190.14 163.507 190.14ZM163.507 189.41C164.074 189.41 164.521 189.3 164.847 189.08C165.181 188.86 165.347 188.54 165.347 188.12V188.04C165.347 187.62 165.184 187.3 164.857 187.08C164.531 186.86 164.081 186.75 163.507 186.75C162.941 186.75 162.494 186.86 162.167 187.08C161.841 187.3 161.677 187.62 161.677 188.04V188.12C161.677 188.54 161.841 188.86 162.167 189.08C162.501 189.3 162.947 189.41 163.507 189.41ZM163.507 186.02C164.041 186.02 164.457 185.92 164.757 185.72C165.064 185.513 165.217 185.223 165.217 184.85V184.77C165.217 184.39 165.064 184.1 164.757 183.9C164.451 183.693 164.034 183.59 163.507 183.59C162.981 183.59 162.564 183.693 162.257 183.9C161.951 184.1 161.797 184.39 161.797 184.77V184.85C161.797 185.223 161.951 185.513 162.257 185.72C162.564 185.92 162.981 186.02 163.507 186.02Z" fill="black"/>
<path d="M177.5 190.14C177.006 190.14 176.563 190.047 176.17 189.86C175.783 189.673 175.476 189.403 175.25 189.05C175.03 188.697 174.92 188.27 174.92 187.77V187.58H175.73V187.76C175.73 188.273 175.893 188.677 176.22 188.97C176.546 189.263 176.973 189.41 177.5 189.41C178.033 189.41 178.446 189.273 178.74 189C179.04 188.72 179.19 188.37 179.19 187.95V187.87C179.19 187.563 179.116 187.317 178.97 187.13C178.823 186.937 178.623 186.797 178.37 186.71C178.123 186.617 177.85 186.57 177.55 186.57H176.41V185.56L179.08 183.85V183.73H175.09V183H179.94V184.13L177.33 185.81V185.93H177.83C178.223 185.93 178.583 186.003 178.91 186.15C179.243 186.29 179.506 186.503 179.7 186.79C179.9 187.07 180 187.423 180 187.85V187.96C180 188.4 179.896 188.783 179.69 189.11C179.483 189.437 179.193 189.69 178.82 189.87C178.446 190.05 178.006 190.14 177.5 190.14ZM181.035 190V189.27C181.035 188.77 181.122 188.37 181.295 188.07C181.475 187.77 181.722 187.53 182.035 187.35C182.355 187.163 182.735 187.003 183.175 186.87L183.725 186.7C184.025 186.607 184.288 186.493 184.515 186.36C184.742 186.22 184.918 186.047 185.045 185.84C185.172 185.627 185.235 185.367 185.235 185.06V185.02C185.235 184.58 185.082 184.233 184.775 183.98C184.468 183.72 184.075 183.59 183.595 183.59C183.088 183.59 182.675 183.727 182.355 184C182.035 184.267 181.875 184.673 181.875 185.22V185.36H181.075V185.23C181.075 184.723 181.185 184.293 181.405 183.94C181.625 183.587 181.925 183.32 182.305 183.14C182.685 182.953 183.115 182.86 183.595 182.86C184.075 182.86 184.498 182.95 184.865 183.13C185.238 183.31 185.528 183.56 185.735 183.88C185.942 184.2 186.045 184.573 186.045 185V185.09C186.045 185.543 185.955 185.92 185.775 186.22C185.595 186.513 185.345 186.753 185.025 186.94C184.712 187.127 184.342 187.287 183.915 187.42L183.375 187.59C183.035 187.697 182.752 187.81 182.525 187.93C182.305 188.043 182.138 188.19 182.025 188.37C181.912 188.55 181.855 188.793 181.855 189.1V189.27H185.985V190H181.035Z" fill="black"/>
<path d="M197.451 190.14C196.958 190.14 196.514 190.047 196.121 189.86C195.734 189.673 195.428 189.403 195.201 189.05C194.981 188.697 194.871 188.27 194.871 187.77V187.58H195.681V187.76C195.681 188.273 195.844 188.677 196.171 188.97C196.498 189.263 196.924 189.41 197.451 189.41C197.984 189.41 198.398 189.273 198.691 189C198.991 188.72 199.141 188.37 199.141 187.95V187.87C199.141 187.563 199.068 187.317 198.921 187.13C198.774 186.937 198.574 186.797 198.321 186.71C198.074 186.617 197.801 186.57 197.501 186.57H196.361V185.56L199.031 183.85V183.73H195.041V183H199.891V184.13L197.281 185.81V185.93H197.781C198.174 185.93 198.534 186.003 198.861 186.15C199.194 186.29 199.458 186.503 199.651 186.79C199.851 187.07 199.951 187.423 199.951 187.85V187.96C199.951 188.4 199.848 188.783 199.641 189.11C199.434 189.437 199.144 189.69 198.771 189.87C198.398 190.05 197.958 190.14 197.451 190.14ZM203.556 190.14C203.076 190.14 202.646 190.047 202.266 189.86C201.893 189.667 201.596 189.393 201.376 189.04C201.163 188.687 201.056 188.267 201.056 187.78V185.34C201.056 184.813 201.159 184.367 201.366 184C201.573 183.633 201.863 183.353 202.236 183.16C202.616 182.96 203.066 182.86 203.586 182.86C204.099 182.86 204.536 182.953 204.896 183.14C205.263 183.32 205.539 183.57 205.726 183.89C205.919 184.203 206.016 184.567 206.016 184.98H205.196C205.196 184.567 205.063 184.233 204.796 183.98C204.529 183.72 204.126 183.59 203.586 183.59C203.039 183.59 202.616 183.74 202.316 184.04C202.016 184.333 201.866 184.74 201.866 185.26V186.23H202.006C202.126 186.03 202.326 185.847 202.606 185.68C202.886 185.507 203.276 185.42 203.776 185.42C204.196 185.42 204.579 185.513 204.926 185.7C205.273 185.887 205.549 186.15 205.756 186.49C205.963 186.83 206.066 187.233 206.066 187.7V187.82C206.066 188.293 205.956 188.703 205.736 189.05C205.523 189.397 205.226 189.667 204.846 189.86C204.466 190.047 204.036 190.14 203.556 190.14ZM203.556 189.41C204.063 189.41 204.473 189.267 204.786 188.98C205.099 188.693 205.256 188.303 205.256 187.81V187.73C205.256 187.397 205.183 187.11 205.036 186.87C204.896 186.63 204.699 186.443 204.446 186.31C204.193 186.17 203.896 186.1 203.556 186.1C203.223 186.1 202.929 186.17 202.676 186.31C202.423 186.443 202.223 186.63 202.076 186.87C201.936 187.11 201.866 187.397 201.866 187.73V187.81C201.866 188.303 202.023 188.693 202.336 188.98C202.649 189.267 203.056 189.41 203.556 189.41Z" fill="black"/>
<path d="M218.142 190V188.57H214.492V187.61L217.432 183H218.952V187.84H220.152V188.57H218.952V190H218.142ZM215.302 187.84H218.142V183.49H218.002L215.302 187.72V187.84ZM223.622 190.14C222.829 190.14 222.195 189.907 221.722 189.44C221.255 188.967 221.022 188.26 221.022 187.32V185.68C221.022 184.747 221.255 184.043 221.722 183.57C222.195 183.097 222.829 182.86 223.622 182.86C224.422 182.86 225.055 183.097 225.522 183.57C225.995 184.043 226.232 184.747 226.232 185.68V187.32C226.232 188.26 225.995 188.967 225.522 189.44C225.055 189.907 224.422 190.14 223.622 190.14ZM223.622 189.41C224.222 189.41 224.672 189.23 224.972 188.87C225.272 188.51 225.422 188.007 225.422 187.36V185.63C225.422 184.983 225.269 184.483 224.962 184.13C224.655 183.77 224.209 183.59 223.622 183.59C223.035 183.59 222.589 183.77 222.282 184.13C221.982 184.49 221.832 184.99 221.832 185.63V187.36C221.832 188.013 221.982 188.52 222.282 188.88C222.582 189.233 223.029 189.41 223.622 189.41Z" fill="black"/>
<path d="M238.22 190V188.57H234.57V187.61L237.51 183H239.03V187.84H240.23V188.57H239.03V190H238.22ZM235.38 187.84H238.22V183.49H238.08L235.38 187.72V187.84ZM244.47 190V188.57H240.82V187.61L243.76 183H245.28V187.84H246.48V188.57H245.28V190H244.47ZM241.63 187.84H244.47V183.49H244.33L241.63 187.72V187.84Z" fill="black"/>
<path d="M258.23 190V188.57H254.58V187.61L257.52 183H259.04V187.84H260.24V188.57H259.04V190H258.23ZM255.39 187.84H258.23V183.49H258.09L255.39 187.72V187.84ZM263.62 190.14C263.08 190.14 262.61 190.06 262.21 189.9C261.816 189.733 261.51 189.503 261.29 189.21C261.076 188.91 260.97 188.56 260.97 188.16V188.05C260.97 187.703 261.043 187.417 261.19 187.19C261.336 186.963 261.513 186.79 261.72 186.67C261.933 186.543 262.13 186.463 262.31 186.43V186.3C262.13 186.247 261.943 186.16 261.75 186.04C261.563 185.92 261.406 185.757 261.28 185.55C261.16 185.343 261.1 185.09 261.1 184.79V184.68C261.1 184.3 261.206 183.977 261.42 183.71C261.64 183.437 261.94 183.227 262.32 183.08C262.7 182.933 263.133 182.86 263.62 182.86C264.113 182.86 264.546 182.933 264.92 183.08C265.3 183.227 265.596 183.437 265.81 183.71C266.03 183.977 266.14 184.3 266.14 184.68V184.79C266.14 185.09 266.08 185.343 265.96 185.55C265.84 185.757 265.686 185.92 265.5 186.04C265.313 186.16 265.126 186.247 264.94 186.3V186.43C265.126 186.463 265.323 186.543 265.53 186.67C265.736 186.79 265.91 186.963 266.05 187.19C266.196 187.417 266.27 187.703 266.27 188.05V188.16C266.27 188.56 266.163 188.91 265.95 189.21C265.736 189.503 265.43 189.733 265.03 189.9C264.636 190.06 264.166 190.14 263.62 190.14ZM263.62 189.41C264.186 189.41 264.633 189.3 264.96 189.08C265.293 188.86 265.46 188.54 265.46 188.12V188.04C265.46 187.62 265.296 187.3 264.97 187.08C264.643 186.86 264.193 186.75 263.62 186.75C263.053 186.75 262.606 186.86 262.28 187.08C261.953 187.3 261.79 187.62 261.79 188.04V188.12C261.79 188.54 261.953 188.86 262.28 189.08C262.613 189.3 263.06 189.41 263.62 189.41ZM263.62 186.02C264.153 186.02 264.57 185.92 264.87 185.72C265.176 185.513 265.33 185.223 265.33 184.85V184.77C265.33 184.39 265.176 184.1 264.87 183.9C264.563 183.693 264.146 183.59 263.62 183.59C263.093 183.59 262.676 183.693 262.37 183.9C262.063 184.1 261.91 184.39 261.91 184.77V184.85C261.91 185.223 262.063 185.513 262.37 185.72C262.676 185.92 263.093 186.02 263.62 186.02Z" fill="black"/>
<path d="M277.465 190.14C276.952 190.14 276.509 190.043 276.135 189.85C275.762 189.65 275.472 189.377 275.265 189.03C275.059 188.677 274.955 188.27 274.955 187.81V187.69H275.765V187.78C275.765 188.307 275.919 188.71 276.225 188.99C276.532 189.27 276.939 189.41 277.445 189.41C277.979 189.41 278.395 189.26 278.695 188.96C278.995 188.66 279.145 188.25 279.145 187.73V187.64C279.145 187.14 278.999 186.743 278.705 186.45C278.419 186.15 278.045 186 277.585 186C277.319 186 277.099 186.043 276.925 186.13C276.752 186.21 276.615 186.313 276.515 186.44C276.415 186.56 276.332 186.677 276.265 186.79H275.165V183H279.765V183.73H275.975V186.15H276.115C276.189 186.017 276.289 185.887 276.415 185.76C276.549 185.633 276.725 185.527 276.945 185.44C277.165 185.353 277.439 185.31 277.765 185.31C278.172 185.31 278.539 185.403 278.865 185.59C279.199 185.777 279.462 186.043 279.655 186.39C279.855 186.737 279.955 187.15 279.955 187.63V187.74C279.955 188.213 279.855 188.63 279.655 188.99C279.455 189.35 279.169 189.633 278.795 189.84C278.422 190.04 277.979 190.14 277.465 190.14ZM283.532 190.14C283.052 190.14 282.622 190.047 282.242 189.86C281.868 189.667 281.572 189.393 281.352 189.04C281.138 188.687 281.032 188.267 281.032 187.78V185.34C281.032 184.813 281.135 184.367 281.342 184C281.548 183.633 281.838 183.353 282.212 183.16C282.592 182.96 283.042 182.86 283.562 182.86C284.075 182.86 284.512 182.953 284.872 183.14C285.238 183.32 285.515 183.57 285.702 183.89C285.895 184.203 285.992 184.567 285.992 184.98H285.172C285.172 184.567 285.038 184.233 284.772 183.98C284.505 183.72 284.102 183.59 283.562 183.59C283.015 183.59 282.592 183.74 282.292 184.04C281.992 184.333 281.842 184.74 281.842 185.26V186.23H281.982C282.102 186.03 282.302 185.847 282.582 185.68C282.862 185.507 283.252 185.42 283.752 185.42C284.172 185.42 284.555 185.513 284.902 185.7C285.248 185.887 285.525 186.15 285.732 186.49C285.938 186.83 286.042 187.233 286.042 187.7V187.82C286.042 188.293 285.932 188.703 285.712 189.05C285.498 189.397 285.202 189.667 284.822 189.86C284.442 190.047 284.012 190.14 283.532 190.14ZM283.532 189.41C284.038 189.41 284.448 189.267 284.762 188.98C285.075 188.693 285.232 188.303 285.232 187.81V187.73C285.232 187.397 285.158 187.11 285.012 186.87C284.872 186.63 284.675 186.443 284.422 186.31C284.168 186.17 283.872 186.1 283.532 186.1C283.198 186.1 282.905 186.17 282.652 186.31C282.398 186.443 282.198 186.63 282.052 186.87C281.912 187.11 281.842 187.397 281.842 187.73V187.81C281.842 188.303 281.998 188.693 282.312 188.98C282.625 189.267 283.032 189.41 283.532 189.41Z" fill="black"/>
<path d="M14.845 144V142.57H11.195V141.61L14.135 137H15.655V141.84H16.855V142.57H15.655V144H14.845ZM12.005 141.84H14.845V137.49H14.705L12.005 141.72V141.84Z" fill="black"/>
<path d="M14.0385 124.14C13.5585 124.14 13.1285 124.047 12.7485 123.86C12.3751 123.667 12.0785 123.393 11.8585 123.04C11.6451 122.687 11.5385 122.267 11.5385 121.78V119.34C11.5385 118.813 11.6418 118.367 11.8485 118C12.0551 117.633 12.3451 117.353 12.7185 117.16C13.0985 116.96 13.5485 116.86 14.0685 116.86C14.5818 116.86 15.0185 116.953 15.3785 117.14C15.7451 117.32 16.0218 117.57 16.2085 117.89C16.4018 118.203 16.4985 118.567 16.4985 118.98H15.6785C15.6785 118.567 15.5451 118.233 15.2785 117.98C15.0118 117.72 14.6085 117.59 14.0685 117.59C13.5218 117.59 13.0985 117.74 12.7985 118.04C12.4985 118.333 12.3485 118.74 12.3485 119.26V120.23H12.4885C12.6085 120.03 12.8085 119.847 13.0885 119.68C13.3685 119.507 13.7585 119.42 14.2585 119.42C14.6785 119.42 15.0618 119.513 15.4085 119.7C15.7551 119.887 16.0318 120.15 16.2385 120.49C16.4451 120.83 16.5485 121.233 16.5485 121.7V121.82C16.5485 122.293 16.4385 122.703 16.2185 123.05C16.0051 123.397 15.7085 123.667 15.3285 123.86C14.9485 124.047 14.5185 124.14 14.0385 124.14ZM14.0385 123.41C14.5451 123.41 14.9551 123.267 15.2685 122.98C15.5818 122.693 15.7385 122.303 15.7385 121.81V121.73C15.7385 121.397 15.6651 121.11 15.5185 120.87C15.3785 120.63 15.1818 120.443 14.9285 120.31C14.6751 120.17 14.3785 120.1 14.0385 120.1C13.7051 120.1 13.4118 120.17 13.1585 120.31C12.9051 120.443 12.7051 120.63 12.5585 120.87C12.4185 121.11 12.3485 121.397 12.3485 121.73V121.81C12.3485 122.303 12.5051 122.693 12.8185 122.98C13.1318 123.267 13.5385 123.41 14.0385 123.41Z" fill="black"/>
<path d="M13.9948 104.14C13.4548 104.14 12.9848 104.06 12.5848 103.9C12.1914 103.733 11.8848 103.503 11.6648 103.21C11.4514 102.91 11.3448 102.56 11.3448 102.16V102.05C11.3448 101.703 11.4181 101.417 11.5648 101.19C11.7114 100.963 11.8881 100.79 12.0948 100.67C12.3081 100.543 12.5048 100.463 12.6848 100.43V100.3C12.5048 100.247 12.3181 100.16 12.1248 100.04C11.9381 99.92 11.7814 99.7567 11.6548 99.55C11.5348 99.3433 11.4748 99.09 11.4748 98.79V98.68C11.4748 98.3 11.5814 97.9767 11.7948 97.71C12.0148 97.4367 12.3148 97.2267 12.6948 97.08C13.0748 96.9333 13.5081 96.86 13.9948 96.86C14.4881 96.86 14.9214 96.9333 15.2948 97.08C15.6748 97.2267 15.9714 97.4367 16.1848 97.71C16.4048 97.9767 16.5148 98.3 16.5148 98.68V98.79C16.5148 99.09 16.4548 99.3433 16.3348 99.55C16.2148 99.7567 16.0614 99.92 15.8748 100.04C15.6881 100.16 15.5014 100.247 15.3148 100.3V100.43C15.5014 100.463 15.6981 100.543 15.9048 100.67C16.1114 100.79 16.2848 100.963 16.4248 101.19C16.5714 101.417 16.6448 101.703 16.6448 102.05V102.16C16.6448 102.56 16.5381 102.91 16.3248 103.21C16.1114 103.503 15.8048 103.733 15.4048 103.9C15.0114 104.06 14.5414 104.14 13.9948 104.14ZM13.9948 103.41C14.5614 103.41 15.0081 103.3 15.3348 103.08C15.6681 102.86 15.8348 102.54 15.8348 102.12V102.04C15.8348 101.62 15.6714 101.3 15.3448 101.08C15.0181 100.86 14.5681 100.75 13.9948 100.75C13.4281 100.75 12.9814 100.86 12.6548 101.08C12.3281 101.3 12.1648 101.62 12.1648 102.04V102.12C12.1648 102.54 12.3281 102.86 12.6548 103.08C12.9881 103.3 13.4348 103.41 13.9948 103.41ZM13.9948 100.02C14.5281 100.02 14.9448 99.92 15.2448 99.72C15.5514 99.5133 15.7048 99.2233 15.7048 98.85V98.77C15.7048 98.39 15.5514 98.1 15.2448 97.9C14.9381 97.6933 14.5214 97.59 13.9948 97.59C13.4681 97.59 13.0514 97.6933 12.7448 97.9C12.4381 98.1 12.2848 98.39 12.2848 98.77V98.85C12.2848 99.2233 12.4381 99.5133 12.7448 99.72C13.0514 99.92 13.4681 100.02 13.9948 100.02Z" fill="black"/>
<path d="M9.98406 84V77.54H9.83406L8.47406 80.03H7.59406L9.26406 77H10.7941V84H9.98406ZM14.7938 84.14C14.0004 84.14 13.3671 83.9067 12.8938 83.44C12.4271 82.9667 12.1938 82.26 12.1938 81.32V79.68C12.1938 78.7467 12.4271 78.0433 12.8938 77.57C13.3671 77.0967 14.0004 76.86 14.7938 76.86C15.5938 76.86 16.2271 77.0967 16.6938 77.57C17.1671 78.0433 17.4038 78.7467 17.4038 79.68V81.32C17.4038 82.26 17.1671 82.9667 16.6938 83.44C16.2271 83.9067 15.5938 84.14 14.7938 84.14ZM14.7938 83.41C15.3938 83.41 15.8438 83.23 16.1438 82.87C16.4438 82.51 16.5938 82.0067 16.5938 81.36V79.63C16.5938 78.9833 16.4404 78.4833 16.1338 78.13C15.8271 77.77 15.3804 77.59 14.7938 77.59C14.2071 77.59 13.7604 77.77 13.4538 78.13C13.1538 78.49 13.0038 78.99 13.0038 79.63V81.36C13.0038 82.0133 13.1538 82.52 13.4538 82.88C13.7538 83.2333 14.2004 83.41 14.7938 83.41Z" fill="black"/>
<path d="M10.3649 64V57.54H10.2149L8.85492 60.03H7.97492L9.64492 57H11.1749V64H10.3649ZM12.5046 64V63.27C12.5046 62.77 12.5913 62.37 12.7646 62.07C12.9446 61.77 13.1913 61.53 13.5046 61.35C13.8246 61.1633 14.2046 61.0033 14.6446 60.87L15.1946 60.7C15.4946 60.6067 15.7579 60.4933 15.9846 60.36C16.2113 60.22 16.3879 60.0467 16.5146 59.84C16.6413 59.6267 16.7046 59.3667 16.7046 59.06V59.02C16.7046 58.58 16.5513 58.2333 16.2446 57.98C15.9379 57.72 15.5446 57.59 15.0646 57.59C14.5579 57.59 14.1446 57.7267 13.8246 58C13.5046 58.2667 13.3446 58.6733 13.3446 59.22V59.36H12.5446V59.23C12.5446 58.7233 12.6546 58.2933 12.8746 57.94C13.0946 57.5867 13.3946 57.32 13.7746 57.14C14.1546 56.9533 14.5846 56.86 15.0646 56.86C15.5446 56.86 15.9679 56.95 16.3346 57.13C16.7079 57.31 16.9979 57.56 17.2046 57.88C17.4113 58.2 17.5146 58.5733 17.5146 59V59.09C17.5146 59.5433 17.4246 59.92 17.2446 60.22C17.0646 60.5133 16.8146 60.7533 16.4946 60.94C16.1813 61.1267 15.8113 61.2867 15.3846 61.42L14.8446 61.59C14.5046 61.6967 14.2213 61.81 13.9946 61.93C13.7746 62.0433 13.6079 62.19 13.4946 62.37C13.3813 62.55 13.3246 62.7933 13.3246 63.1V63.27H17.4546V64H12.5046Z" fill="black"/>
<path d="M10.1403 44V37.54H9.99031L8.63031 40.03H7.75031L9.42031 37H10.9503V44H10.1403ZM15.72 44V42.57H12.07V41.61L15.01 37H16.53V41.84H17.73V42.57H16.53V44H15.72ZM12.88 41.84H15.72V37.49H15.58L12.88 41.72V41.84Z" fill="black"/>
<path d="M8.084 178.134C8.084 178.45 8.028 178.73 7.916 178.974C7.804 179.218 7.64 179.41 7.424 179.55C7.204 179.686 6.938 179.754 6.626 179.754H6.476V179.112H6.626C6.922 179.112 7.144 179.024 7.292 178.848C7.44 178.668 7.514 178.43 7.514 178.134C7.514 177.834 7.452 177.608 7.328 177.456C7.2 177.304 7.036 177.228 6.836 177.228C6.704 177.228 6.596 177.264 6.512 177.336C6.428 177.408 6.362 177.51 6.314 177.642C6.262 177.774 6.214 177.932 6.17 178.116L6.116 178.338C6.052 178.606 5.974 178.84 5.882 179.04C5.786 179.236 5.66 179.388 5.504 179.496C5.348 179.604 5.148 179.658 4.904 179.658C4.656 179.658 4.444 179.598 4.268 179.478C4.092 179.354 3.956 179.184 3.86 178.968C3.764 178.752 3.716 178.498 3.716 178.206C3.716 177.914 3.766 177.654 3.866 177.426C3.966 177.194 4.114 177.012 4.31 176.88C4.506 176.748 4.752 176.682 5.048 176.682H5.264V177.324H5.048C4.868 177.324 4.722 177.362 4.61 177.438C4.498 177.51 4.416 177.612 4.364 177.744C4.312 177.876 4.286 178.03 4.286 178.206C4.286 178.462 4.34 178.662 4.448 178.806C4.552 178.946 4.698 179.016 4.886 179.016C5.014 179.016 5.12 178.986 5.204 178.926C5.284 178.862 5.35 178.77 5.402 178.65C5.454 178.53 5.5 178.38 5.54 178.2L5.594 177.978C5.654 177.706 5.732 177.466 5.828 177.258C5.92 177.05 6.046 176.886 6.206 176.766C6.366 176.646 6.572 176.586 6.824 176.586C7.076 176.586 7.296 176.65 7.484 176.778C7.672 176.902 7.82 177.08 7.928 177.312C8.032 177.544 8.084 177.818 8.084 178.134ZM8 175.888H5.042V175.27H8V175.888ZM4.64 175.576C4.64 175.696 4.602 175.798 4.526 175.882C4.446 175.962 4.344 176.002 4.22 176.002C4.096 176.002 3.996 175.962 3.92 175.882C3.84 175.798 3.8 175.696 3.8 175.576C3.8 175.452 3.84 175.35 3.92 175.27C3.996 175.19 4.096 175.15 4.22 175.15C4.344 175.15 4.446 175.19 4.526 175.27C4.602 175.35 4.64 175.452 4.64 175.576ZM8.084 173.129C8.084 173.373 8.024 173.599 7.904 173.807C7.784 174.015 7.612 174.183 7.388 174.311C7.16 174.435 6.886 174.497 6.566 174.497H6.476C6.16 174.497 5.888 174.435 5.66 174.311C5.432 174.187 5.258 174.021 5.138 173.813C5.018 173.605 4.958 173.377 4.958 173.129C4.958 172.937 4.982 172.777 5.03 172.649C5.078 172.517 5.14 172.409 5.216 172.325C5.288 172.241 5.364 172.177 5.444 172.133V172.037H3.8V171.419H8L8 172.025H7.58V172.121C7.708 172.197 7.824 172.313 7.928 172.469C8.032 172.621 8.084 172.841 8.084 173.129ZM7.544 172.955C7.544 172.687 7.458 172.467 7.286 172.295C7.114 172.119 6.868 172.031 6.548 172.031H6.494C6.178 172.031 5.934 172.117 5.762 172.289C5.59 172.461 5.504 172.683 5.504 172.955C5.504 173.219 5.59 173.439 5.762 173.615C5.934 173.787 6.178 173.873 6.494 173.873H6.548C6.868 173.873 7.114 173.787 7.286 173.615C7.458 173.439 7.544 173.219 7.544 172.955ZM8.084 169.153C8.084 169.453 8.022 169.715 7.898 169.939C7.77 170.163 7.592 170.339 7.364 170.467C7.132 170.591 6.864 170.653 6.56 170.653H6.488C6.18 170.653 5.912 170.591 5.684 170.467C5.452 170.343 5.274 170.171 5.15 169.951C5.022 169.727 4.958 169.469 4.958 169.177C4.958 168.893 5.022 168.645 5.15 168.433C5.274 168.217 5.448 168.049 5.672 167.929C5.896 167.809 6.158 167.749 6.458 167.749H6.692V170.023C6.952 170.015 7.16 169.929 7.316 169.765C7.468 169.597 7.544 169.389 7.544 169.141C7.544 168.909 7.492 168.735 7.388 168.619C7.284 168.499 7.164 168.407 7.028 168.343L7.292 167.833C7.404 167.889 7.522 167.971 7.646 168.079C7.77 168.183 7.874 168.321 7.958 168.493C8.042 168.665 8.084 168.885 8.084 169.153ZM6.218 170.017V168.379C5.994 168.395 5.82 168.475 5.696 168.619C5.568 168.763 5.504 168.951 5.504 169.183C5.504 169.415 5.568 169.605 5.696 169.753C5.82 169.897 5.994 169.985 6.218 170.017ZM6.746 167.017H6.182L6.182 165.241H6.746L6.746 167.017ZM8 163.957H5.564V164.785H5.042V163.957H4.394C4.214 163.957 4.07 163.903 3.962 163.795C3.854 163.687 3.8 163.543 3.8 163.363V162.601H4.322V163.165C4.322 163.281 4.382 163.339 4.502 163.339H5.042V162.487H5.564V163.339H8V163.957ZM8.054 160.721C8.054 160.945 8.004 161.145 7.904 161.321C7.804 161.497 7.662 161.635 7.478 161.735C7.294 161.835 7.074 161.885 6.818 161.885H5.042V161.267H6.776C7.032 161.267 7.222 161.203 7.346 161.075C7.466 160.947 7.526 160.769 7.526 160.541C7.526 160.289 7.442 160.087 7.274 159.935C7.102 159.779 6.856 159.701 6.536 159.701H5.042V159.083H8V159.689H7.556V159.785C7.676 159.841 7.79 159.941 7.898 160.085C8.002 160.229 8.054 160.441 8.054 160.721ZM8 158.169H5.042V157.563H5.39V157.467C5.286 157.411 5.194 157.321 5.114 157.197C5.034 157.073 4.994 156.905 4.994 156.693C4.994 156.473 5.04 156.297 5.132 156.165C5.22 156.029 5.334 155.927 5.474 155.859V155.763C5.338 155.695 5.224 155.597 5.132 155.469C5.04 155.337 4.994 155.151 4.994 154.911C4.994 154.719 5.034 154.549 5.114 154.401C5.19 154.253 5.306 154.135 5.462 154.047C5.614 153.959 5.804 153.915 6.032 153.915H8V154.533H6.08C5.9 154.533 5.762 154.583 5.666 154.683C5.566 154.779 5.516 154.917 5.516 155.097C5.516 155.289 5.578 155.443 5.702 155.559C5.826 155.675 6.004 155.733 6.236 155.733H8V156.351H6.08C5.9 156.351 5.762 156.401 5.666 156.501C5.566 156.597 5.516 156.735 5.516 156.915C5.516 157.107 5.578 157.261 5.702 157.377C5.826 157.493 6.004 157.551 6.236 157.551H8V158.169ZM8.084 151.314C8.084 151.602 8.032 151.824 7.928 151.98C7.824 152.132 7.708 152.246 7.58 152.322V152.418H8V153.024H3.8V152.406H5.444V152.31C5.364 152.262 5.288 152.198 5.216 152.118C5.14 152.038 5.078 151.932 5.03 151.8C4.982 151.668 4.958 151.506 4.958 151.314C4.958 151.066 5.018 150.838 5.138 150.63C5.258 150.422 5.432 150.256 5.66 150.132C5.888 150.008 6.16 149.946 6.476 149.946H6.566C6.886 149.946 7.16 150.01 7.388 150.138C7.612 150.262 7.784 150.428 7.904 150.636C8.024 150.84 8.084 151.066 8.084 151.314ZM7.544 151.494C7.544 151.226 7.458 151.006 7.286 150.834C7.114 150.658 6.868 150.57 6.548 150.57H6.494C6.178 150.57 5.934 150.656 5.762 150.828C5.59 151 5.504 151.222 5.504 151.494C5.504 151.758 5.59 151.978 5.762 152.154C5.934 152.326 6.178 152.412 6.494 152.412H6.548C6.868 152.412 7.114 152.326 7.286 152.154C7.458 151.978 7.544 151.758 7.544 151.494ZM8 149.181H3.8V148.563H8V149.181ZM8.084 146.29C8.084 146.59 8.022 146.852 7.898 147.076C7.77 147.3 7.592 147.476 7.364 147.604C7.132 147.728 6.864 147.79 6.56 147.79H6.488C6.18 147.79 5.912 147.728 5.684 147.604C5.452 147.48 5.274 147.308 5.15 147.088C5.022 146.864 4.958 146.606 4.958 146.314C4.958 146.03 5.022 145.782 5.15 145.57C5.274 145.354 5.448 145.186 5.672 145.066C5.896 144.946 6.158 144.886 6.458 144.886H6.692V147.16C6.952 147.152 7.16 147.066 7.316 146.902C7.468 146.734 7.544 146.526 7.544 146.278C7.544 146.046 7.492 145.872 7.388 145.756C7.284 145.636 7.164 145.544 7.028 145.48L7.292 144.97C7.404 145.026 7.522 145.108 7.646 145.216C7.77 145.32 7.874 145.458 7.958 145.63C8.042 145.802 8.084 146.022 8.084 146.29ZM6.218 147.154V145.516C5.994 145.532 5.82 145.612 5.696 145.756C5.568 145.9 5.504 146.088 5.504 146.32C5.504 146.552 5.568 146.742 5.696 146.89C5.82 147.034 5.994 147.122 6.218 147.154ZM8.084 142.93C8.084 143.306 8 143.618 7.832 143.866C7.664 144.114 7.41 144.266 7.07 144.322L6.932 143.746C7.096 143.714 7.226 143.66 7.322 143.584C7.418 143.508 7.486 143.414 7.526 143.302C7.566 143.186 7.586 143.062 7.586 142.93C7.586 142.734 7.548 142.584 7.472 142.48C7.396 142.372 7.298 142.318 7.178 142.318C7.058 142.318 6.97 142.368 6.914 142.468C6.858 142.568 6.812 142.716 6.776 142.912L6.74 143.116C6.704 143.316 6.652 143.498 6.584 143.662C6.516 143.826 6.422 143.956 6.302 144.052C6.182 144.148 6.028 144.196 5.84 144.196C5.56 144.196 5.344 144.092 5.192 143.884C5.036 143.676 4.958 143.4 4.958 143.056C4.958 142.724 5.034 142.452 5.186 142.24C5.334 142.024 5.536 141.884 5.792 141.82L5.954 142.396C5.774 142.432 5.648 142.508 5.576 142.624C5.5 142.74 5.462 142.884 5.462 143.056C5.462 143.224 5.494 143.356 5.558 143.452C5.618 143.548 5.704 143.596 5.816 143.596C5.936 143.596 6.024 143.55 6.08 143.458C6.136 143.362 6.178 143.234 6.206 143.074L6.242 142.864C6.278 142.652 6.328 142.458 6.392 142.282C6.456 142.106 6.548 141.968 6.668 141.868C6.788 141.764 6.948 141.712 7.148 141.712C7.444 141.712 7.674 141.822 7.838 142.042C8.002 142.262 8.084 142.558 8.084 142.93ZM9.2 139.46H5.042V138.854H5.468V138.758C5.336 138.682 5.218 138.568 5.114 138.416C5.01 138.26 4.958 138.038 4.958 137.75C4.958 137.502 5.018 137.276 5.138 137.072C5.258 136.864 5.432 136.698 5.66 136.574C5.884 136.446 6.156 136.382 6.476 136.382H6.566C6.886 136.382 7.16 136.444 7.388 136.568C7.612 136.692 7.784 136.858 7.904 137.066C8.024 137.274 8.084 137.502 8.084 137.75C8.084 137.942 8.06 138.104 8.012 138.236C7.964 138.368 7.904 138.474 7.832 138.554C7.756 138.634 7.678 138.698 7.598 138.746V138.842H9.2V139.46ZM7.544 137.93C7.544 137.658 7.458 137.436 7.286 137.264C7.114 137.092 6.868 137.006 6.548 137.006H6.494C6.178 137.006 5.934 137.094 5.762 137.27C5.59 137.442 5.504 137.662 5.504 137.93C5.504 138.194 5.59 138.414 5.762 138.59C5.934 138.762 6.178 138.848 6.494 138.848H6.548C6.868 138.848 7.114 138.762 7.286 138.59C7.458 138.414 7.544 138.194 7.544 137.93ZM8.084 134.26C8.084 134.56 8.022 134.822 7.898 135.046C7.77 135.27 7.592 135.446 7.364 135.574C7.132 135.698 6.864 135.76 6.56 135.76H6.488C6.18 135.76 5.912 135.698 5.684 135.574C5.452 135.45 5.274 135.278 5.15 135.058C5.022 134.834 4.958 134.576 4.958 134.284C4.958 134 5.022 133.752 5.15 133.54C5.274 133.324 5.448 133.156 5.672 133.036C5.896 132.916 6.158 132.856 6.458 132.856H6.692L6.692 135.13C6.952 135.122 7.16 135.036 7.316 134.872C7.468 134.704 7.544 134.496 7.544 134.248C7.544 134.016 7.492 133.842 7.388 133.726C7.284 133.606 7.164 133.514 7.028 133.45L7.292 132.94C7.404 132.996 7.522 133.078 7.646 133.186C7.77 133.29 7.874 133.428 7.958 133.6C8.042 133.772 8.084 133.992 8.084 134.26ZM6.218 135.124L6.218 133.486C5.994 133.502 5.82 133.582 5.696 133.726C5.568 133.87 5.504 134.058 5.504 134.29C5.504 134.522 5.568 134.712 5.696 134.86C5.82 135.004 5.994 135.092 6.218 135.124ZM8 132.112H5.042V131.506H5.39V131.41C5.266 131.362 5.176 131.286 5.12 131.182C5.06 131.074 5.03 130.942 5.03 130.786V130.432H5.588V130.81C5.588 131.01 5.644 131.174 5.756 131.302C5.864 131.43 6.032 131.494 6.26 131.494H8V132.112ZM8.084 127.051C8.084 127.427 8 127.739 7.832 127.987C7.664 128.235 7.41 128.387 7.07 128.443L6.932 127.867C7.096 127.835 7.226 127.781 7.322 127.705C7.418 127.629 7.486 127.535 7.526 127.423C7.566 127.307 7.586 127.183 7.586 127.051C7.586 126.855 7.548 126.705 7.472 126.601C7.396 126.493 7.298 126.439 7.178 126.439C7.058 126.439 6.97 126.489 6.914 126.589C6.858 126.689 6.812 126.837 6.776 127.033L6.74 127.237C6.704 127.437 6.652 127.619 6.584 127.783C6.516 127.947 6.422 128.077 6.302 128.173C6.182 128.269 6.028 128.317 5.84 128.317C5.56 128.317 5.344 128.213 5.192 128.005C5.036 127.797 4.958 127.521 4.958 127.177C4.958 126.845 5.034 126.573 5.186 126.361C5.334 126.145 5.536 126.005 5.792 125.941L5.954 126.517C5.774 126.553 5.648 126.629 5.576 126.745C5.5 126.861 5.462 127.005 5.462 127.177C5.462 127.345 5.494 127.477 5.558 127.573C5.618 127.669 5.704 127.717 5.816 127.717C5.936 127.717 6.024 127.671 6.08 127.579C6.136 127.483 6.178 127.355 6.206 127.195L6.242 126.985C6.278 126.773 6.328 126.579 6.392 126.403C6.456 126.227 6.548 126.089 6.668 125.989C6.788 125.885 6.948 125.833 7.148 125.833C7.444 125.833 7.674 125.943 7.838 126.163C8.002 126.383 8.084 126.679 8.084 127.051ZM8.084 123.754C8.084 124.054 8.022 124.316 7.898 124.54C7.77 124.764 7.592 124.94 7.364 125.068C7.132 125.192 6.864 125.254 6.56 125.254H6.488C6.18 125.254 5.912 125.192 5.684 125.068C5.452 124.944 5.274 124.772 5.15 124.552C5.022 124.328 4.958 124.07 4.958 123.778C4.958 123.494 5.022 123.246 5.15 123.034C5.274 122.818 5.448 122.65 5.672 122.53C5.896 122.41 6.158 122.35 6.458 122.35H6.692L6.692 124.624C6.952 124.616 7.16 124.53 7.316 124.366C7.468 124.198 7.544 123.99 7.544 123.742C7.544 123.51 7.492 123.336 7.388 123.22C7.284 123.1 7.164 123.008 7.028 122.944L7.292 122.434C7.404 122.49 7.522 122.572 7.646 122.68C7.77 122.784 7.874 122.922 7.958 123.094C8.042 123.266 8.084 123.486 8.084 123.754ZM6.218 124.618V122.98C5.994 122.996 5.82 123.076 5.696 123.22C5.568 123.364 5.504 123.552 5.504 123.784C5.504 124.016 5.568 124.206 5.696 124.354C5.82 124.498 5.994 124.586 6.218 124.618ZM8.084 120.232C8.084 120.516 8.024 120.774 7.904 121.006C7.784 121.234 7.61 121.416 7.382 121.552C7.154 121.684 6.88 121.75 6.56 121.75H6.482C6.162 121.75 5.89 121.684 5.666 121.552C5.438 121.416 5.264 121.234 5.144 121.006C5.02 120.774 4.958 120.516 4.958 120.232C4.958 119.948 5.01 119.706 5.114 119.506C5.218 119.306 5.356 119.146 5.528 119.026C5.7 118.902 5.89 118.822 6.098 118.786L6.224 119.386C6.092 119.406 5.972 119.448 5.864 119.512C5.756 119.576 5.67 119.666 5.606 119.782C5.542 119.898 5.51 120.044 5.51 120.22C5.51 120.392 5.55 120.548 5.63 120.688C5.706 120.824 5.818 120.932 5.966 121.012C6.11 121.092 6.286 121.132 6.494 121.132H6.548C6.756 121.132 6.934 121.092 7.082 121.012C7.23 120.932 7.342 120.824 7.418 120.688C7.494 120.548 7.532 120.392 7.532 120.22C7.532 119.96 7.466 119.762 7.334 119.626C7.198 119.49 7.026 119.404 6.818 119.368L6.956 118.768C7.16 118.816 7.348 118.902 7.52 119.026C7.692 119.146 7.83 119.306 7.934 119.506C8.034 119.706 8.084 119.948 8.084 120.232ZM8.084 116.67C8.084 116.966 8.024 117.23 7.904 117.462C7.78 117.69 7.604 117.87 7.376 118.002C7.148 118.134 6.878 118.2 6.566 118.2H6.476C6.164 118.2 5.896 118.134 5.672 118.002C5.444 117.87 5.268 117.69 5.144 117.462C5.02 117.23 4.958 116.966 4.958 116.67C4.958 116.374 5.02 116.11 5.144 115.878C5.268 115.646 5.444 115.464 5.672 115.332C5.896 115.2 6.164 115.134 6.476 115.134H6.566C6.878 115.134 7.148 115.2 7.376 115.332C7.604 115.464 7.78 115.646 7.904 115.878C8.024 116.11 8.084 116.374 8.084 116.67ZM7.532 116.67C7.532 116.398 7.446 116.178 7.274 116.01C7.098 115.838 6.856 115.752 6.548 115.752H6.494C6.186 115.752 5.946 115.836 5.774 116.004C5.598 116.172 5.51 116.394 5.51 116.67C5.51 116.938 5.598 117.158 5.774 117.33C5.946 117.498 6.186 117.582 6.494 117.582H6.548C6.856 117.582 7.098 117.498 7.274 117.33C7.446 117.158 7.532 116.938 7.532 116.67ZM8 114.364H5.042V113.758H5.486V113.662C5.366 113.606 5.254 113.506 5.15 113.362C5.046 113.218 4.994 113.004 4.994 112.72C4.994 112.496 5.044 112.298 5.144 112.126C5.244 111.95 5.386 111.812 5.57 111.712C5.75 111.612 5.968 111.562 6.224 111.562H8V112.18H6.272C6.016 112.18 5.828 112.244 5.708 112.372C5.584 112.5 5.522 112.676 5.522 112.9C5.522 113.156 5.606 113.362 5.774 113.518C5.942 113.67 6.186 113.746 6.506 113.746H8V114.364ZM8.084 109.449C8.084 109.693 8.024 109.919 7.904 110.127C7.784 110.335 7.612 110.503 7.388 110.631C7.16 110.755 6.886 110.817 6.566 110.817H6.476C6.16 110.817 5.888 110.755 5.66 110.631C5.432 110.507 5.258 110.341 5.138 110.133C5.018 109.925 4.958 109.697 4.958 109.449C4.958 109.257 4.982 109.097 5.03 108.969C5.078 108.837 5.14 108.729 5.216 108.645C5.288 108.561 5.364 108.497 5.444 108.453V108.357H3.8V107.739H8V108.345H7.58V108.441C7.708 108.517 7.824 108.633 7.928 108.789C8.032 108.941 8.084 109.161 8.084 109.449ZM7.544 109.275C7.544 109.007 7.458 108.787 7.286 108.615C7.114 108.439 6.868 108.351 6.548 108.351H6.494C6.178 108.351 5.934 108.437 5.762 108.609C5.59 108.781 5.504 109.003 5.504 109.275C5.504 109.539 5.59 109.759 5.762 109.935C5.934 110.107 6.178 110.193 6.494 110.193H6.548C6.868 110.193 7.114 110.107 7.286 109.935C7.458 109.759 7.544 109.539 7.544 109.275Z" fill="black"/>
<path d="M21.866 196.084C21.55 196.084 21.27 196.028 21.026 195.916C20.782 195.804 20.59 195.64 20.45 195.424C20.314 195.204 20.246 194.938 20.246 194.626V194.476H20.888V194.626C20.888 194.922 20.976 195.144 21.152 195.292C21.332 195.44 21.57 195.514 21.866 195.514C22.166 195.514 22.392 195.452 22.544 195.328C22.696 195.2 22.772 195.036 22.772 194.836C22.772 194.704 22.736 194.596 22.664 194.512C22.592 194.428 22.49 194.362 22.358 194.314C22.226 194.262 22.068 194.214 21.884 194.17L21.662 194.116C21.394 194.052 21.16 193.974 20.96 193.882C20.764 193.786 20.612 193.66 20.504 193.504C20.396 193.348 20.342 193.148 20.342 192.904C20.342 192.656 20.402 192.444 20.522 192.268C20.646 192.092 20.816 191.956 21.032 191.86C21.248 191.764 21.502 191.716 21.794 191.716C22.086 191.716 22.346 191.766 22.574 191.866C22.806 191.966 22.988 192.114 23.12 192.31C23.252 192.506 23.318 192.752 23.318 193.048V193.264H22.676V193.048C22.676 192.868 22.638 192.722 22.562 192.61C22.49 192.498 22.388 192.416 22.256 192.364C22.124 192.312 21.97 192.286 21.794 192.286C21.538 192.286 21.338 192.34 21.194 192.448C21.054 192.552 20.984 192.698 20.984 192.886C20.984 193.014 21.014 193.12 21.074 193.204C21.138 193.284 21.23 193.35 21.35 193.402C21.47 193.454 21.62 193.5 21.8 193.54L22.022 193.594C22.294 193.654 22.534 193.732 22.742 193.828C22.95 193.92 23.114 194.046 23.234 194.206C23.354 194.366 23.414 194.572 23.414 194.824C23.414 195.076 23.35 195.296 23.222 195.484C23.098 195.672 22.92 195.82 22.688 195.928C22.456 196.032 22.182 196.084 21.866 196.084ZM24.1123 196V191.8H24.7303V196H24.1123ZM27.0334 196.084C26.7374 196.084 26.4734 196.024 26.2414 195.904C26.0134 195.78 25.8334 195.604 25.7014 195.376C25.5694 195.148 25.5034 194.878 25.5034 194.566V194.476C25.5034 194.164 25.5694 193.896 25.7014 193.672C25.8334 193.444 26.0134 193.268 26.2414 193.144C26.4734 193.02 26.7374 192.958 27.0334 192.958C27.3294 192.958 27.5934 193.02 27.8254 193.144C28.0574 193.268 28.2394 193.444 28.3714 193.672C28.5034 193.896 28.5694 194.164 28.5694 194.476V194.566C28.5694 194.878 28.5034 195.148 28.3714 195.376C28.2394 195.604 28.0574 195.78 27.8254 195.904C27.5934 196.024 27.3294 196.084 27.0334 196.084ZM27.0334 195.532C27.3054 195.532 27.5254 195.446 27.6934 195.274C27.8654 195.098 27.9514 194.856 27.9514 194.548V194.494C27.9514 194.186 27.8674 193.946 27.6994 193.774C27.5314 193.598 27.3094 193.51 27.0334 193.51C26.7654 193.51 26.5454 193.598 26.3734 193.774C26.2054 193.946 26.1214 194.186 26.1214 194.494V194.548C26.1214 194.856 26.2054 195.098 26.3734 195.274C26.5454 195.446 26.7654 195.532 27.0334 195.532ZM30.3375 196C30.1575 196 30.0135 195.946 29.9055 195.838C29.8015 195.73 29.7495 195.586 29.7495 195.406V193.564H28.9335V193.042H29.7495V192.064H30.3675V193.042H31.2495V193.564H30.3675V195.298C30.3675 195.418 30.4235 195.478 30.5355 195.478H31.1535V196H30.3375ZM33.1875 196.084C32.8115 196.084 32.4995 196 32.2515 195.832C32.0035 195.664 31.8515 195.41 31.7955 195.07L32.3715 194.932C32.4035 195.096 32.4575 195.226 32.5335 195.322C32.6095 195.418 32.7035 195.486 32.8155 195.526C32.9315 195.566 33.0555 195.586 33.1875 195.586C33.3835 195.586 33.5335 195.548 33.6375 195.472C33.7455 195.396 33.7995 195.298 33.7995 195.178C33.7995 195.058 33.7495 194.97 33.6495 194.914C33.5495 194.858 33.4015 194.812 33.2055 194.776L33.0015 194.74C32.8015 194.704 32.6195 194.652 32.4555 194.584C32.2915 194.516 32.1615 194.422 32.0655 194.302C31.9695 194.182 31.9215 194.028 31.9215 193.84C31.9215 193.56 32.0255 193.344 32.2335 193.192C32.4415 193.036 32.7175 192.958 33.0615 192.958C33.3935 192.958 33.6655 193.034 33.8775 193.186C34.0935 193.334 34.2335 193.536 34.2975 193.792L33.7215 193.954C33.6855 193.774 33.6095 193.648 33.4935 193.576C33.3775 193.5 33.2335 193.462 33.0615 193.462C32.8935 193.462 32.7615 193.494 32.6655 193.558C32.5695 193.618 32.5215 193.704 32.5215 193.816C32.5215 193.936 32.5675 194.024 32.6595 194.08C32.7555 194.136 32.8835 194.178 33.0435 194.206L33.2535 194.242C33.4655 194.278 33.6595 194.328 33.8355 194.392C34.0115 194.456 34.1495 194.548 34.2495 194.668C34.3535 194.788 34.4055 194.948 34.4055 195.148C34.4055 195.444 34.2955 195.674 34.0755 195.838C33.8555 196.002 33.5595 196.084 33.1875 196.084Z" fill="black"/>
<path d="M20.5 49.5C108.454 137.233 229 145.5 280.5 79.5" stroke="black"/>
<path d="M18 182L20.5 179.5" stroke="black"/>
<path d="M20.5 159.5C20.1 159.5 18.6667 159.5 18 159.5" stroke="black"/>
<path d="M40.5 179V182" stroke="black"/>
<path d="M60.5 179V182" stroke="black"/>
<path d="M80.5 179V182" stroke="black"/>
<path d="M100.5 179V182" stroke="black"/>
<path d="M120.5 179V182" stroke="black"/>
<path d="M140.5 179V182" stroke="black"/>
<path d="M160.5 179V182" stroke="black"/>
<path d="M180.5 179V182" stroke="black"/>
<path d="M200.5 179V182" stroke="black"/>
<path d="M220.5 179V182" stroke="black"/>
<path d="M240.5 179V182" stroke="black"/>
<path d="M260.5 179V182" stroke="black"/>
<path d="M280.5 179V182" stroke="black"/>
<path d="M20.5 139.5C20.1 139.5 18.6667 139.5 18 139.5" stroke="black"/>
<path d="M20.5 119.5C20.1 119.5 18.6667 119.5 18 119.5" stroke="black"/>
<path d="M20.5 99.5C20.1 99.5 18.6667 99.5 18 99.5" stroke="black"/>
<path d="M20.5 79.5C20.1 79.5 18.6667 79.5 18 79.5" stroke="black"/>
<path d="M20.5 59.5C20.1 59.5 18.6667 59.5 18 59.5" stroke="black"/>
<path d="M20.5 39.5C20.1 39.5 18.6667 39.5 18 39.5" stroke="black"/>
<path d="M36.4213 41V40.1H39.1713C39.358 40.1 39.4513 40 39.4513 39.8V38.28H39.2913C39.2313 38.4133 39.138 38.5433 39.0113 38.67C38.8913 38.79 38.728 38.89 38.5213 38.97C38.3147 39.05 38.0547 39.09 37.7413 39.09C37.368 39.09 37.0347 39.0067 36.7413 38.84C36.448 38.6733 36.218 38.4367 36.0513 38.13C35.8847 37.8233 35.8013 37.46 35.8013 37.04V34.07H36.8313V36.96C36.8313 37.3867 36.938 37.7033 37.1513 37.91C37.3647 38.11 37.6613 38.21 38.0413 38.21C38.4613 38.21 38.798 38.07 39.0513 37.79C39.3113 37.51 39.4413 37.1033 39.4413 36.57V34.07H40.4713V40.01C40.4713 40.31 40.3813 40.55 40.2013 40.73C40.028 40.91 39.788 41 39.4813 41H36.4213ZM42.1879 41V38.606H41.3959V38.036H42.1879V37.436C42.1879 37.24 42.2439 37.086 42.3559 36.974C42.4719 36.858 42.6239 36.8 42.8119 36.8H43.5319V37.37H43.0399C42.9279 37.37 42.8719 37.43 42.8719 37.55V38.036H44.1379V38.606H42.8719V41H42.1879ZM44.1379 41V38.036H44.8219V41H44.1379ZM44.4799 37.682C44.3519 37.682 44.2439 37.64 44.1559 37.556C44.0679 37.472 44.0239 37.362 44.0239 37.226C44.0239 37.094 44.0679 36.986 44.1559 36.902C44.2439 36.818 44.3519 36.776 44.4799 36.776C44.6119 36.776 44.7199 36.818 44.8039 36.902C44.8919 36.986 44.9359 37.094 44.9359 37.226C44.9359 37.362 44.8919 37.472 44.8039 37.556C44.7199 37.64 44.6119 37.682 44.4799 37.682ZM45.8773 41V38.036H46.5553V38.378H46.6573C46.7013 38.254 46.7753 38.164 46.8793 38.108C46.9833 38.052 47.1073 38.024 47.2513 38.024H47.6113V38.636H47.2393C47.0393 38.636 46.8773 38.69 46.7533 38.798C46.6293 38.902 46.5673 39.064 46.5673 39.284V41H45.8773ZM49.5547 41.084C49.1707 41.084 48.8547 41 48.6067 40.832C48.3587 40.664 48.2087 40.418 48.1567 40.094L48.7927 39.932C48.8207 40.084 48.8707 40.204 48.9427 40.292C49.0147 40.38 49.1027 40.442 49.2067 40.478C49.3147 40.514 49.4307 40.532 49.5547 40.532C49.7427 40.532 49.8827 40.498 49.9747 40.43C50.0707 40.362 50.1187 40.276 50.1187 40.172C50.1187 40.064 50.0727 39.984 49.9807 39.932C49.8927 39.88 49.7567 39.836 49.5727 39.8L49.3867 39.77C49.1827 39.73 48.9967 39.676 48.8287 39.608C48.6607 39.536 48.5247 39.44 48.4207 39.32C48.3207 39.196 48.2707 39.04 48.2707 38.852C48.2707 38.564 48.3767 38.342 48.5887 38.186C48.8047 38.03 49.0867 37.952 49.4347 37.952C49.7667 37.952 50.0407 38.026 50.2567 38.174C50.4727 38.322 50.6127 38.52 50.6767 38.768L50.0407 38.96C50.0087 38.792 49.9387 38.674 49.8307 38.606C49.7227 38.534 49.5907 38.498 49.4347 38.498C49.2747 38.498 49.1507 38.526 49.0627 38.582C48.9787 38.638 48.9367 38.718 48.9367 38.822C48.9367 38.926 48.9807 39.004 49.0687 39.056C49.1567 39.108 49.2747 39.146 49.4227 39.17L49.6087 39.206C49.8287 39.246 50.0267 39.298 50.2027 39.362C50.3827 39.426 50.5247 39.518 50.6287 39.638C50.7327 39.758 50.7847 39.92 50.7847 40.124C50.7847 40.432 50.6727 40.67 50.4487 40.838C50.2287 41.002 49.9307 41.084 49.5547 41.084ZM52.7325 41C52.5405 41 52.3865 40.944 52.2705 40.832C52.1585 40.716 52.1025 40.56 52.1025 40.364V38.606H51.3285V38.036H52.1025V37.082H52.7925V38.036H53.6445V38.606H52.7925V40.25C52.7925 40.37 52.8485 40.43 52.9605 40.43H53.5545V41H52.7325Z" fill="black"/>
<path d="M252.569 64V63.1H255.319C255.505 63.1 255.599 63 255.599 62.8V61.28H255.439C255.379 61.4133 255.285 61.5433 255.159 61.67C255.039 61.79 254.875 61.89 254.669 61.97C254.462 62.05 254.202 62.09 253.889 62.09C253.515 62.09 253.182 62.0067 252.889 61.84C252.595 61.6733 252.365 61.4367 252.199 61.13C252.032 60.8233 251.949 60.46 251.949 60.04V57.07H252.979V59.96C252.979 60.3867 253.085 60.7033 253.299 60.91C253.512 61.11 253.809 61.21 254.189 61.21C254.609 61.21 254.945 61.07 255.199 60.79C255.459 60.51 255.589 60.1033 255.589 59.57V57.07H256.619V63.01C256.619 63.31 256.529 63.55 256.349 63.73C256.175 63.91 255.935 64 255.629 64H252.569ZM257.819 64V59.8H258.509V64H257.819ZM260.482 64.084C260.274 64.084 260.086 64.048 259.918 63.976C259.75 63.9 259.616 63.792 259.516 63.652C259.42 63.512 259.372 63.34 259.372 63.136C259.372 62.936 259.42 62.768 259.516 62.632C259.616 62.496 259.752 62.394 259.924 62.326C260.096 62.254 260.292 62.218 260.512 62.218H261.37V62.038C261.37 61.882 261.322 61.756 261.226 61.66C261.13 61.56 260.98 61.51 260.776 61.51C260.576 61.51 260.424 61.558 260.32 61.654C260.22 61.746 260.154 61.866 260.122 62.014L259.486 61.804C259.534 61.648 259.61 61.506 259.714 61.378C259.822 61.25 259.964 61.148 260.14 61.072C260.316 60.992 260.532 60.952 260.788 60.952C261.176 60.952 261.48 61.05 261.7 61.246C261.924 61.438 262.036 61.718 262.036 62.086V63.25C262.036 63.37 262.092 63.43 262.204 63.43H262.456V64H261.97C261.826 64 261.708 63.964 261.616 63.892C261.524 63.82 261.478 63.722 261.478 63.598V63.586H261.376C261.352 63.642 261.31 63.71 261.25 63.79C261.19 63.87 261.098 63.94 260.974 64C260.854 64.056 260.69 64.084 260.482 64.084ZM260.596 63.52C260.824 63.52 261.01 63.456 261.154 63.328C261.298 63.196 261.37 63.02 261.37 62.8V62.74H260.554C260.406 62.74 260.286 62.772 260.194 62.836C260.102 62.9 260.056 62.994 260.056 63.118C260.056 63.238 260.104 63.336 260.2 63.412C260.296 63.484 260.428 63.52 260.596 63.52ZM264.407 64.084C264.023 64.084 263.707 64 263.459 63.832C263.211 63.664 263.061 63.418 263.009 63.094L263.645 62.932C263.673 63.084 263.723 63.204 263.795 63.292C263.867 63.38 263.955 63.442 264.059 63.478C264.167 63.514 264.283 63.532 264.407 63.532C264.595 63.532 264.735 63.498 264.827 63.43C264.923 63.362 264.971 63.276 264.971 63.172C264.971 63.064 264.925 62.984 264.833 62.932C264.745 62.88 264.609 62.836 264.425 62.8L264.239 62.77C264.035 62.73 263.849 62.676 263.681 62.608C263.513 62.536 263.377 62.44 263.273 62.32C263.173 62.196 263.123 62.04 263.123 61.852C263.123 61.564 263.229 61.342 263.441 61.186C263.657 61.03 263.939 60.952 264.287 60.952C264.619 60.952 264.893 61.026 265.109 61.174C265.325 61.322 265.465 61.52 265.529 61.768L264.893 61.96C264.861 61.792 264.791 61.674 264.683 61.606C264.575 61.534 264.443 61.498 264.287 61.498C264.127 61.498 264.003 61.526 263.915 61.582C263.831 61.638 263.789 61.718 263.789 61.822C263.789 61.926 263.833 62.004 263.921 62.056C264.009 62.108 264.127 62.146 264.275 62.17L264.461 62.206C264.681 62.246 264.879 62.298 265.055 62.362C265.235 62.426 265.377 62.518 265.481 62.638C265.585 62.758 265.637 62.92 265.637 63.124C265.637 63.432 265.525 63.67 265.301 63.838C265.081 64.002 264.783 64.084 264.407 64.084ZM267.585 64C267.393 64 267.239 63.944 267.123 63.832C267.011 63.716 266.955 63.56 266.955 63.364V61.606H266.181V61.036H266.955V60.082H267.645V61.036H268.497V61.606H267.645V63.25C267.645 63.37 267.701 63.43 267.813 63.43H268.407V64H267.585Z" fill="black"/>
<path d="M139.8 53V52.1H142.55C142.737 52.1 142.83 52 142.83 51.8V50.28H142.67C142.61 50.4133 142.517 50.5433 142.39 50.67C142.27 50.79 142.107 50.89 141.9 50.97C141.694 51.05 141.434 51.09 141.12 51.09C140.747 51.09 140.414 51.0067 140.12 50.84C139.827 50.6733 139.597 50.4367 139.43 50.13C139.264 49.8233 139.18 49.46 139.18 49.04V46.07H140.21V48.96C140.21 49.3867 140.317 49.7033 140.53 49.91C140.744 50.11 141.04 50.21 141.42 50.21C141.84 50.21 142.177 50.07 142.43 49.79C142.69 49.51 142.82 49.1033 142.82 48.57V46.07H143.85V52.01C143.85 52.31 143.76 52.55 143.58 52.73C143.407 52.91 143.167 53 142.86 53H139.8ZM146.161 53V49.304H146.059L145.429 50.678H144.691L145.585 48.8H146.857V53H146.161ZM150.548 51.14C150.315 51.14 150.118 51.0633 149.958 50.91C149.805 50.7567 149.728 50.56 149.728 50.32C149.728 50.08 149.805 49.8867 149.958 49.74C150.118 49.5867 150.315 49.51 150.548 49.51C150.782 49.51 150.975 49.5867 151.128 49.74C151.288 49.8933 151.368 50.0867 151.368 50.32C151.368 50.56 151.288 50.7567 151.128 50.91C150.975 51.0633 150.782 51.14 150.548 51.14ZM153.312 51.14C153.079 51.14 152.882 51.0633 152.722 50.91C152.569 50.7567 152.492 50.56 152.492 50.32C152.492 50.08 152.569 49.8867 152.722 49.74C152.882 49.5867 153.079 49.51 153.312 49.51C153.545 49.51 153.739 49.5867 153.892 49.74C154.052 49.8933 154.132 50.0867 154.132 50.32C154.132 50.56 154.052 50.7567 153.892 50.91C153.739 51.0633 153.545 51.14 153.312 51.14ZM156.076 51.14C155.842 51.14 155.646 51.0633 155.486 50.91C155.332 50.7567 155.256 50.56 155.256 50.32C155.256 50.08 155.332 49.8867 155.486 49.74C155.646 49.5867 155.842 49.51 156.076 49.51C156.309 49.51 156.502 49.5867 156.656 49.74C156.816 49.8933 156.896 50.0867 156.896 50.32C156.896 50.56 156.816 50.7567 156.656 50.91C156.502 51.0633 156.309 51.14 156.076 51.14ZM161.026 53V52.1H163.776C163.962 52.1 164.056 52 164.056 51.8V50.28H163.896C163.836 50.4133 163.742 50.5433 163.616 50.67C163.496 50.79 163.332 50.89 163.126 50.97C162.919 51.05 162.659 51.09 162.346 51.09C161.972 51.09 161.639 51.0067 161.346 50.84C161.052 50.6733 160.822 50.4367 160.656 50.13C160.489 49.8233 160.406 49.46 160.406 49.04V46.07H161.436V48.96C161.436 49.3867 161.542 49.7033 161.756 49.91C161.969 50.11 162.266 50.21 162.646 50.21C163.066 50.21 163.402 50.07 163.656 49.79C163.916 49.51 164.046 49.1033 164.046 48.57V46.07H165.076V52.01C165.076 52.31 164.986 52.55 164.806 52.73C164.632 52.91 164.392 53 164.086 53H161.026ZM166.276 53V50.036H166.954V50.45H167.056C167.108 50.338 167.202 50.232 167.338 50.132C167.474 50.032 167.68 49.982 167.956 49.982C168.184 49.982 168.386 50.034 168.562 50.138C168.738 50.242 168.874 50.386 168.97 50.57C169.07 50.754 169.12 50.972 169.12 51.224V53H168.43V51.278C168.43 51.038 168.37 50.86 168.25 50.744C168.134 50.624 167.968 50.564 167.752 50.564C167.508 50.564 167.316 50.646 167.176 50.81C167.036 50.97 166.966 51.2 166.966 51.5V53H166.276Z" fill="black"/>
<path d="M22.5025 47.9502C22.475 48.225 22.6755 48.47 22.9502 48.4975L27.4279 48.9453C27.7027 48.9728 27.9477 48.7723 27.9752 48.4975C28.0027 48.2227 27.8022 47.9777 27.5274 47.9502L23.5473 47.5522L23.9453 43.5721C23.9728 43.2973 23.7723 43.0523 23.4975 43.0248C23.2227 42.9973 22.9777 43.1978 22.9502 43.4726L22.5025 47.9502ZM33.6834 38.613L22.6834 47.613L23.3166 48.387L34.3166 39.387L33.6834 38.613Z" fill="black"/>
<path d="M277.922 77.4939C278.195 77.537 278.451 77.3507 278.494 77.078L279.196 72.633C279.239 72.3603 279.053 72.1043 278.78 72.0612C278.507 72.0181 278.251 72.2043 278.208 72.4771L277.584 76.4281L273.633 75.8043C273.36 75.7612 273.104 75.9474 273.061 76.2202C273.018 76.493 273.204 76.749 273.477 76.7921L277.922 77.4939ZM269.596 66.2941L277.596 77.2941L278.404 76.7059L270.404 65.7059L269.596 66.2941Z" fill="black"/>
<path d="M45.5921 65.7109C45.4324 65.9362 45.4856 66.2483 45.7109 66.4079L49.3823 69.01C49.6076 69.1697 49.9197 69.1165 50.0793 68.8912C50.239 68.6659 50.1858 68.3538 49.9605 68.1941L46.6971 65.8812L49.01 62.6177C49.1697 62.3924 49.1165 62.0803 48.8912 61.9207C48.6659 61.761 48.3538 61.8142 48.1941 62.0395L45.5921 65.7109ZM133.916 50.5071L45.916 65.5071L46.084 66.4929L134.084 51.4929L133.916 50.5071Z" fill="black"/>
<path d="M258.16 96.4736C258.422 96.385 258.562 96.1012 258.474 95.8396L257.03 91.5773C256.942 91.3158 256.658 91.1755 256.396 91.2641C256.135 91.3527 255.995 91.6365 256.083 91.898L257.366 95.6868L253.577 96.9696C253.316 97.0581 253.176 97.3419 253.264 97.6035C253.353 97.8651 253.636 98.0053 253.898 97.9167L258.16 96.4736ZM172.779 54.4483L257.778 96.4483L258.221 95.5517L173.221 53.5517L172.779 54.4483Z" fill="black"/>
<rect x="0.5" y="0.5" width="299" height="199" stroke="black"/>
</svg>
